SplineFontDB: 3.2
FontName: SydnieOutline
FullName: SydnieOutline
FamilyName: SydnieOutline
Weight: Book
Copyright: (c) Copyright , FFDec v.22.0.2.
Version: 1.0
ItalicAngle: 10
UnderlinePosition: -30
UnderlineWidth: 60
Ascent: 819
Descent: 205
InvalidEm: 0
sfntRevision: 0x00010000
LayerCount: 2
Layer: 0 1 "Back" 1
Layer: 1 1 "Fore" 0
XUID: [1021 891 -1597383762 31987]
StyleMap: 0x0040
FSType: 0
OS2Version: 2
OS2_WeightWidthSlopeOnly: 0
OS2_UseTypoMetrics: 0
CreationTime: 850008720
ModificationTime: 1758290694
PfmFamily: 81
TTFWeight: 400
TTFWidth: 5
LineGap: 170
VLineGap: 0
Panose: 0 0 0 0 0 0 0 0 0 0
OS2TypoAscent: 683
OS2TypoAOffset: 0
OS2TypoDescent: -171
OS2TypoDOffset: 0
OS2TypoLinegap: 170
OS2WinAscent: 694
OS2WinAOffset: 0
OS2WinDescent: 169
OS2WinDOffset: 0
HheadAscent: 694
HheadAOffset: 0
HheadDescent: -169
HheadDOffset: 0
OS2SubXSize: 128
OS2SubYSize: 128
OS2SubXOff: 0
OS2SubYOff: -64
OS2SupXSize: 128
OS2SupYSize: 128
OS2SupXOff: 0
OS2SupYOff: 64
OS2StrikeYSize: 51
OS2StrikeYPos: 512
OS2CapHeight: 683
OS2XHeight: 424
OS2FamilyClass: 2048
OS2Vendor: 'dtyp'
OS2CodePages: 00000001.00000000
OS2UnicodeRanges: 00000003.00000000.00000000.00000000
MarkAttachClasses: 1
DEI: 91125
ShortTable: maxp 16
  1
  0
  67
  110
  22
  0
  0
  2
  128
  64
  128
  128
  128
  128
  128
  0
EndShort
LangName: 1033 "+AKkA Copyright , FFDec v.22.0.2." "" "Regular" "" "" "Version 1.0" "" "n/a" "FFDec v.22.0.2"
Encoding: UnicodeBmp
UnicodeInterp: none
NameList: AGL For New Fonts
DisplaySize: -48
AntiAlias: 1
FitToEm: 0
WinInfo: 38 38 14
BeginPrivate: 0
EndPrivate
BeginChars: 65539 67

StartChar: .notdef
Encoding: 65536 -1 0
Width: 512
GlyphClass: 1
Flags: W
LayerCount: 2
Fore
SplineSet
0 683 m 1,0,-1
 0 0 l 1,1,-1
 438 0 l 1,2,-1
 438 683 l 1,3,-1
 0 683 l 1,0,-1
365 610 m 1,4,-1
 365 73 l 1,5,-1
 73 73 l 1,6,-1
 73 610 l 1,7,-1
 365 610 l 1,4,-1
EndSplineSet
EndChar

StartChar: exclam
Encoding: 33 33 4
Width: 205
GlyphClass: 1
Flags: W
LayerCount: 2
Fore
SplineSet
189 590 m 1,0,-1
 189 694 l 1,1,-1
 84 694 l 1,2,-1
 84 590 l 1,3,-1
 189 590 l 1,4,-1
 189 590 l 1,0,-1
189 506 m 1,5,-1
 189 610 l 1,6,-1
 84 610 l 1,7,-1
 84 506 l 1,8,-1
 189 506 l 1,9,-1
 189 506 l 1,5,-1
189 421 m 1,10,-1
 189 526 l 1,11,-1
 84 526 l 1,12,-1
 84 421 l 1,13,-1
 189 421 l 1,14,-1
 189 421 l 1,10,-1
189 337 m 1,15,-1
 189 441 l 1,16,-1
 84 441 l 1,17,-1
 84 337 l 1,18,-1
 189 337 l 1,19,-1
 189 337 l 1,15,-1
189 252 m 1,20,-1
 189 357 l 1,21,-1
 84 357 l 1,22,-1
 84 252 l 1,23,-1
 189 252 l 1,24,-1
 189 252 l 1,20,-1
189 168 m 1,25,-1
 189 272 l 1,26,-1
 84 272 l 1,27,-1
 84 168 l 1,28,-1
 189 168 l 1,29,-1
 189 168 l 1,25,-1
189 0 m 1,30,-1
 189 104 l 1,31,-1
 84 104 l 1,32,-1
 84 0 l 1,33,-1
 189 0 l 1,34,-1
 189 0 l 1,30,-1
EndSplineSet
EndChar

StartChar: quotedbl
Encoding: 34 34 5
Width: 374
GlyphClass: 1
Flags: W
LayerCount: 2
Fore
SplineSet
358 590 m 1,0,-1
 358 694 l 1,1,-1
 253 694 l 1,2,-1
 253 590 l 1,3,-1
 358 590 l 1,4,-1
 358 590 l 1,0,-1
358 506 m 1,5,-1
 358 610 l 1,6,-1
 253 610 l 1,7,-1
 253 506 l 1,8,-1
 358 506 l 1,9,-1
 358 506 l 1,5,-1
189 590 m 1,10,-1
 189 694 l 1,11,-1
 84 694 l 1,12,-1
 84 590 l 1,13,-1
 189 590 l 1,14,-1
 189 590 l 1,10,-1
189 506 m 1,15,-1
 189 610 l 1,16,-1
 84 610 l 1,17,-1
 84 506 l 1,18,-1
 189 506 l 1,19,-1
 189 506 l 1,15,-1
EndSplineSet
EndChar

StartChar: comma
Encoding: 44 44 6
Width: 290
GlyphClass: 1
Flags: W
LayerCount: 2
Fore
SplineSet
189 -85 m 1,0,-1
 189 20 l 1,1,-1
 84 20 l 1,2,-1
 84 -85 l 1,3,-1
 189 -85 l 1,4,-1
 189 -85 l 1,0,-1
274 0 m 1,5,-1
 274 104 l 1,6,-1
 169 104 l 1,7,-1
 169 0 l 1,8,-1
 274 0 l 1,9,-1
 274 0 l 1,5,-1
EndSplineSet
EndChar

StartChar: hyphen
Encoding: 45 45 7
Width: 542
GlyphClass: 1
Flags: W
LayerCount: 2
Fore
SplineSet
106 253 m 1,0,-1
 106 357 l 1,1,-1
 1 357 l 1,2,-1
 1 253 l 1,3,-1
 106 253 l 1,4,-1
 106 253 l 1,0,-1
190 253 m 1,5,-1
 190 357 l 1,6,-1
 85 357 l 1,7,-1
 85 253 l 1,8,-1
 190 253 l 1,9,-1
 190 253 l 1,5,-1
274 253 m 1,10,-1
 274 357 l 1,11,-1
 169 357 l 1,12,-1
 169 253 l 1,13,-1
 274 253 l 1,14,-1
 274 253 l 1,10,-1
358 253 m 1,15,-1
 358 357 l 1,16,-1
 254 357 l 1,17,-1
 254 253 l 1,18,-1
 358 253 l 1,19,-1
 358 253 l 1,15,-1
443 253 m 1,20,-1
 443 357 l 1,21,-1
 338 357 l 1,22,-1
 338 253 l 1,23,-1
 443 253 l 1,24,-1
 443 253 l 1,20,-1
EndSplineSet
EndChar

StartChar: period
Encoding: 46 46 8
Width: 205
GlyphClass: 1
Flags: W
LayerCount: 2
Fore
SplineSet
106 0 m 1,0,-1
 106 104 l 1,1,-1
 1 104 l 1,2,-1
 1 0 l 1,3,-1
 106 0 l 1,4,-1
 106 0 l 1,0,-1
EndSplineSet
EndChar

StartChar: zero
Encoding: 48 48 9
Width: 542
GlyphClass: 1
Flags: W
LayerCount: 2
Fore
SplineSet
105 253 m 1,0,-1
 105 357 l 1,1,-1
 0 357 l 1,2,-1
 0 253 l 1,3,-1
 105 253 l 1,4,-1
 105 253 l 1,0,-1
105 337 m 1,5,-1
 105 441 l 1,6,-1
 0 441 l 1,7,-1
 0 337 l 1,8,-1
 105 337 l 1,9,-1
 105 337 l 1,5,-1
105 421 m 1,10,-1
 105 526 l 1,11,-1
 0 526 l 1,12,-1
 0 421 l 1,13,-1
 105 421 l 1,14,-1
 105 421 l 1,10,-1
105 506 m 1,15,-1
 105 610 l 1,16,-1
 0 610 l 1,17,-1
 0 506 l 1,18,-1
 105 506 l 1,19,-1
 105 506 l 1,15,-1
189 590 m 1,20,-1
 189 694 l 1,21,-1
 85 694 l 1,22,-1
 85 590 l 1,23,-1
 189 590 l 1,24,-1
 189 590 l 1,20,-1
274 590 m 1,25,-1
 274 694 l 1,26,-1
 169 694 l 1,27,-1
 169 590 l 1,28,-1
 274 590 l 1,29,-1
 274 590 l 1,25,-1
358 590 m 1,30,-1
 358 694 l 1,31,-1
 253 694 l 1,32,-1
 253 590 l 1,33,-1
 358 590 l 1,34,-1
 358 590 l 1,30,-1
442 337 m 1,35,-1
 442 441 l 1,36,-1
 338 441 l 1,37,-1
 338 337 l 1,38,-1
 442 337 l 1,39,-1
 442 337 l 1,35,-1
442 253 m 1,40,-1
 442 357 l 1,41,-1
 338 357 l 1,42,-1
 338 253 l 1,43,-1
 442 253 l 1,44,-1
 442 253 l 1,40,-1
442 168 m 1,45,-1
 442 273 l 1,46,-1
 338 273 l 1,47,-1
 338 168 l 1,48,-1
 442 168 l 1,49,-1
 442 168 l 1,45,-1
442 84 m 1,50,-1
 442 188 l 1,51,-1
 338 188 l 1,52,-1
 338 84 l 1,53,-1
 442 84 l 1,54,-1
 442 84 l 1,50,-1
274 0 m 1,55,-1
 274 104 l 1,56,-1
 169 104 l 1,57,-1
 169 0 l 1,58,-1
 274 0 l 1,59,-1
 274 0 l 1,55,-1
358 0 m 1,60,-1
 358 104 l 1,61,-1
 253 104 l 1,62,-1
 253 0 l 1,63,-1
 358 0 l 1,64,-1
 358 0 l 1,60,-1
189 0 m 1,65,-1
 189 104 l 1,66,-1
 85 104 l 1,67,-1
 85 0 l 1,68,-1
 189 0 l 1,69,-1
 189 0 l 1,65,-1
442 421 m 1,70,-1
 442 526 l 1,71,-1
 338 526 l 1,72,-1
 338 421 l 1,73,-1
 442 421 l 1,74,-1
 442 421 l 1,70,-1
442 506 m 1,75,-1
 442 610 l 1,76,-1
 338 610 l 1,77,-1
 338 506 l 1,78,-1
 442 506 l 1,79,-1
 442 506 l 1,75,-1
358 421 m 1,80,-1
 358 526 l 1,81,-1
 253 526 l 1,82,-1
 253 421 l 1,83,-1
 358 421 l 1,84,-1
 358 421 l 1,80,-1
274 337 m 1,85,-1
 274 441 l 1,86,-1
 169 441 l 1,87,-1
 169 337 l 1,88,-1
 274 337 l 1,89,-1
 274 337 l 1,85,-1
189 253 m 1,90,-1
 189 357 l 1,91,-1
 85 357 l 1,92,-1
 85 253 l 1,93,-1
 189 253 l 1,94,-1
 189 253 l 1,90,-1
105 168 m 1,95,-1
 105 273 l 1,96,-1
 0 273 l 1,97,-1
 0 168 l 1,98,-1
 105 168 l 1,99,-1
 105 168 l 1,95,-1
105 84 m 1,100,-1
 105 188 l 1,101,-1
 0 188 l 1,102,-1
 0 84 l 1,103,-1
 105 84 l 1,104,-1
 105 84 l 1,100,-1
EndSplineSet
EndChar

StartChar: one
Encoding: 49 49 10
Width: 542
GlyphClass: 1
Flags: W
LayerCount: 2
Fore
SplineSet
105 0 m 1,0,-1
 105 104 l 1,1,-1
 0 104 l 1,2,-1
 0 0 l 1,3,-1
 105 0 l 1,4,-1
 105 0 l 1,0,-1
189 0 m 1,5,-1
 189 104 l 1,6,-1
 85 104 l 1,7,-1
 85 0 l 1,8,-1
 189 0 l 1,9,-1
 189 0 l 1,5,-1
358 0 m 1,10,-1
 358 104 l 1,11,-1
 253 104 l 1,12,-1
 253 0 l 1,13,-1
 358 0 l 1,14,-1
 358 0 l 1,10,-1
442 0 m 1,15,-1
 442 104 l 1,16,-1
 338 104 l 1,17,-1
 338 0 l 1,18,-1
 442 0 l 1,19,-1
 442 0 l 1,15,-1
274 0 m 1,20,-1
 274 104 l 1,21,-1
 169 104 l 1,22,-1
 169 0 l 1,23,-1
 274 0 l 1,24,-1
 274 0 l 1,20,-1
274 84 m 1,25,-1
 274 188 l 1,26,-1
 169 188 l 1,27,-1
 169 84 l 1,28,-1
 274 84 l 1,29,-1
 274 84 l 1,25,-1
274 168 m 1,30,-1
 274 273 l 1,31,-1
 169 273 l 1,32,-1
 169 168 l 1,33,-1
 274 168 l 1,34,-1
 274 168 l 1,30,-1
274 253 m 1,35,-1
 274 357 l 1,36,-1
 169 357 l 1,37,-1
 169 253 l 1,38,-1
 274 253 l 1,39,-1
 274 253 l 1,35,-1
274 337 m 1,40,-1
 274 441 l 1,41,-1
 169 441 l 1,42,-1
 169 337 l 1,43,-1
 274 337 l 1,44,-1
 274 337 l 1,40,-1
274 421 m 1,45,-1
 274 526 l 1,46,-1
 169 526 l 1,47,-1
 169 421 l 1,48,-1
 274 421 l 1,49,-1
 274 421 l 1,45,-1
274 506 m 1,50,-1
 274 610 l 1,51,-1
 169 610 l 1,52,-1
 169 506 l 1,53,-1
 274 506 l 1,54,-1
 274 506 l 1,50,-1
274 590 m 1,55,-1
 274 694 l 1,56,-1
 169 694 l 1,57,-1
 169 590 l 1,58,-1
 274 590 l 1,59,-1
 274 590 l 1,55,-1
189 506 m 1,60,-1
 189 610 l 1,61,-1
 85 610 l 1,62,-1
 85 506 l 1,63,-1
 189 506 l 1,64,-1
 189 506 l 1,60,-1
105 421 m 1,65,-1
 105 526 l 1,66,-1
 0 526 l 1,67,-1
 0 421 l 1,68,-1
 105 421 l 1,69,-1
 105 421 l 1,65,-1
EndSplineSet
EndChar

StartChar: two
Encoding: 50 50 11
Width: 542
GlyphClass: 1
Flags: W
LayerCount: 2
Fore
SplineSet
105 506 m 1,0,-1
 105 610 l 1,1,-1
 0 610 l 1,2,-1
 0 506 l 1,3,-1
 105 506 l 1,4,-1
 105 506 l 1,0,-1
189 590 m 1,5,-1
 189 694 l 1,6,-1
 85 694 l 1,7,-1
 85 590 l 1,8,-1
 189 590 l 1,9,-1
 189 590 l 1,5,-1
274 590 m 1,10,-1
 274 694 l 1,11,-1
 169 694 l 1,12,-1
 169 590 l 1,13,-1
 274 590 l 1,14,-1
 274 590 l 1,10,-1
358 590 m 1,15,-1
 358 694 l 1,16,-1
 253 694 l 1,17,-1
 253 590 l 1,18,-1
 358 590 l 1,19,-1
 358 590 l 1,15,-1
442 506 m 1,20,-1
 442 610 l 1,21,-1
 338 610 l 1,22,-1
 338 506 l 1,23,-1
 442 506 l 1,24,-1
 442 506 l 1,20,-1
442 421 m 1,25,-1
 442 526 l 1,26,-1
 338 526 l 1,27,-1
 338 421 l 1,28,-1
 442 421 l 1,29,-1
 442 421 l 1,25,-1
358 337 m 1,30,-1
 358 441 l 1,31,-1
 253 441 l 1,32,-1
 253 337 l 1,33,-1
 358 337 l 1,34,-1
 358 337 l 1,30,-1
274 253 m 1,35,-1
 274 357 l 1,36,-1
 169 357 l 1,37,-1
 169 253 l 1,38,-1
 274 253 l 1,39,-1
 274 253 l 1,35,-1
189 168 m 1,40,-1
 189 273 l 1,41,-1
 85 273 l 1,42,-1
 85 168 l 1,43,-1
 189 168 l 1,44,-1
 189 168 l 1,40,-1
442 0 m 1,45,-1
 442 104 l 1,46,-1
 338 104 l 1,47,-1
 338 0 l 1,48,-1
 442 0 l 1,49,-1
 442 0 l 1,45,-1
358 0 m 1,50,-1
 358 104 l 1,51,-1
 253 104 l 1,52,-1
 253 0 l 1,53,-1
 358 0 l 1,54,-1
 358 0 l 1,50,-1
274 0 m 1,55,-1
 274 104 l 1,56,-1
 169 104 l 1,57,-1
 169 0 l 1,58,-1
 274 0 l 1,59,-1
 274 0 l 1,55,-1
189 0 m 1,60,-1
 189 104 l 1,61,-1
 85 104 l 1,62,-1
 85 0 l 1,63,-1
 189 0 l 1,64,-1
 189 0 l 1,60,-1
105 0 m 1,65,-1
 105 104 l 1,66,-1
 0 104 l 1,67,-1
 0 0 l 1,68,-1
 105 0 l 1,69,-1
 105 0 l 1,65,-1
105 84 m 1,70,-1
 105 188 l 1,71,-1
 0 188 l 1,72,-1
 0 84 l 1,73,-1
 105 84 l 1,74,-1
 105 84 l 1,70,-1
EndSplineSet
EndChar

StartChar: three
Encoding: 51 51 12
Width: 542
GlyphClass: 1
Flags: W
LayerCount: 2
Fore
SplineSet
358 590 m 1,0,-1
 358 694 l 1,1,-1
 253 694 l 1,2,-1
 253 590 l 1,3,-1
 358 590 l 1,4,-1
 358 590 l 1,0,-1
274 590 m 1,5,-1
 274 694 l 1,6,-1
 169 694 l 1,7,-1
 169 590 l 1,8,-1
 274 590 l 1,9,-1
 274 590 l 1,5,-1
189 590 m 1,10,-1
 189 694 l 1,11,-1
 85 694 l 1,12,-1
 85 590 l 1,13,-1
 189 590 l 1,14,-1
 189 590 l 1,10,-1
442 506 m 1,15,-1
 442 610 l 1,16,-1
 338 610 l 1,17,-1
 338 506 l 1,18,-1
 442 506 l 1,19,-1
 442 506 l 1,15,-1
442 421 m 1,20,-1
 442 526 l 1,21,-1
 338 526 l 1,22,-1
 338 421 l 1,23,-1
 442 421 l 1,24,-1
 442 421 l 1,20,-1
274 337 m 1,25,-1
 274 441 l 1,26,-1
 169 441 l 1,27,-1
 169 337 l 1,28,-1
 274 337 l 1,29,-1
 274 337 l 1,25,-1
358 337 m 1,30,-1
 358 441 l 1,31,-1
 253 441 l 1,32,-1
 253 337 l 1,33,-1
 358 337 l 1,34,-1
 358 337 l 1,30,-1
442 168 m 1,35,-1
 442 273 l 1,36,-1
 338 273 l 1,37,-1
 338 168 l 1,38,-1
 442 168 l 1,39,-1
 442 168 l 1,35,-1
442 253 m 1,40,-1
 442 357 l 1,41,-1
 338 357 l 1,42,-1
 338 253 l 1,43,-1
 442 253 l 1,44,-1
 442 253 l 1,40,-1
105 506 m 1,45,-1
 105 610 l 1,46,-1
 0 610 l 1,47,-1
 0 506 l 1,48,-1
 105 506 l 1,49,-1
 105 506 l 1,45,-1
442 84 m 1,50,-1
 442 188 l 1,51,-1
 338 188 l 1,52,-1
 338 84 l 1,53,-1
 442 84 l 1,54,-1
 442 84 l 1,50,-1
105 84 m 1,55,-1
 105 188 l 1,56,-1
 0 188 l 1,57,-1
 0 84 l 1,58,-1
 105 84 l 1,59,-1
 105 84 l 1,55,-1
189 0 m 1,60,-1
 189 104 l 1,61,-1
 85 104 l 1,62,-1
 85 0 l 1,63,-1
 189 0 l 1,64,-1
 189 0 l 1,60,-1
274 0 m 1,65,-1
 274 104 l 1,66,-1
 169 104 l 1,67,-1
 169 0 l 1,68,-1
 274 0 l 1,69,-1
 274 0 l 1,65,-1
358 0 m 1,70,-1
 358 104 l 1,71,-1
 253 104 l 1,72,-1
 253 0 l 1,73,-1
 358 0 l 1,74,-1
 358 0 l 1,70,-1
EndSplineSet
EndChar

StartChar: four
Encoding: 52 52 13
Width: 542
GlyphClass: 1
Flags: W
LayerCount: 2
Fore
SplineSet
358 337 m 1,0,-1
 358 441 l 1,1,-1
 253 441 l 1,2,-1
 253 337 l 1,3,-1
 358 337 l 1,4,-1
 358 337 l 1,0,-1
358 421 m 1,5,-1
 358 526 l 1,6,-1
 253 526 l 1,7,-1
 253 421 l 1,8,-1
 358 421 l 1,9,-1
 358 421 l 1,5,-1
358 506 m 1,10,-1
 358 610 l 1,11,-1
 253 610 l 1,12,-1
 253 506 l 1,13,-1
 358 506 l 1,14,-1
 358 506 l 1,10,-1
358 590 m 1,15,-1
 358 694 l 1,16,-1
 253 694 l 1,17,-1
 253 590 l 1,18,-1
 358 590 l 1,19,-1
 358 590 l 1,15,-1
274 506 m 1,20,-1
 274 610 l 1,21,-1
 169 610 l 1,22,-1
 169 506 l 1,23,-1
 274 506 l 1,24,-1
 274 506 l 1,20,-1
189 421 m 1,25,-1
 189 526 l 1,26,-1
 85 526 l 1,27,-1
 85 421 l 1,28,-1
 189 421 l 1,29,-1
 189 421 l 1,25,-1
442 253 m 1,30,-1
 442 357 l 1,31,-1
 338 357 l 1,32,-1
 338 253 l 1,33,-1
 442 253 l 1,34,-1
 442 253 l 1,30,-1
274 253 m 1,35,-1
 274 357 l 1,36,-1
 169 357 l 1,37,-1
 169 253 l 1,38,-1
 274 253 l 1,39,-1
 274 253 l 1,35,-1
189 253 m 1,40,-1
 189 357 l 1,41,-1
 85 357 l 1,42,-1
 85 253 l 1,43,-1
 189 253 l 1,44,-1
 189 253 l 1,40,-1
358 253 m 1,45,-1
 358 357 l 1,46,-1
 253 357 l 1,47,-1
 253 253 l 1,48,-1
 358 253 l 1,49,-1
 358 253 l 1,45,-1
105 337 m 1,50,-1
 105 441 l 1,51,-1
 0 441 l 1,52,-1
 0 337 l 1,53,-1
 105 337 l 1,54,-1
 105 337 l 1,50,-1
105 253 m 1,55,-1
 105 357 l 1,56,-1
 0 357 l 1,57,-1
 0 253 l 1,58,-1
 105 253 l 1,59,-1
 105 253 l 1,55,-1
358 84 m 1,60,-1
 358 188 l 1,61,-1
 253 188 l 1,62,-1
 253 84 l 1,63,-1
 358 84 l 1,64,-1
 358 84 l 1,60,-1
358 168 m 1,65,-1
 358 273 l 1,66,-1
 253 273 l 1,67,-1
 253 168 l 1,68,-1
 358 168 l 1,69,-1
 358 168 l 1,65,-1
358 0 m 1,70,-1
 358 104 l 1,71,-1
 253 104 l 1,72,-1
 253 0 l 1,73,-1
 358 0 l 1,74,-1
 358 0 l 1,70,-1
EndSplineSet
EndChar

StartChar: five
Encoding: 53 53 14
Width: 542
GlyphClass: 1
Flags: W
LayerCount: 2
Fore
SplineSet
105 0 m 1,0,-1
 105 104 l 1,1,-1
 0 104 l 1,2,-1
 0 0 l 1,3,-1
 105 0 l 1,4,-1
 105 0 l 1,0,-1
442 590 m 1,5,-1
 442 694 l 1,6,-1
 338 694 l 1,7,-1
 338 590 l 1,8,-1
 442 590 l 1,9,-1
 442 590 l 1,5,-1
358 590 m 1,10,-1
 358 694 l 1,11,-1
 253 694 l 1,12,-1
 253 590 l 1,13,-1
 358 590 l 1,14,-1
 358 590 l 1,10,-1
274 590 m 1,15,-1
 274 694 l 1,16,-1
 169 694 l 1,17,-1
 169 590 l 1,18,-1
 274 590 l 1,19,-1
 274 590 l 1,15,-1
189 590 m 1,20,-1
 189 694 l 1,21,-1
 85 694 l 1,22,-1
 85 590 l 1,23,-1
 189 590 l 1,24,-1
 189 590 l 1,20,-1
105 506 m 1,25,-1
 105 610 l 1,26,-1
 0 610 l 1,27,-1
 0 506 l 1,28,-1
 105 506 l 1,29,-1
 105 506 l 1,25,-1
105 590 m 1,30,-1
 105 694 l 1,31,-1
 0 694 l 1,32,-1
 0 590 l 1,33,-1
 105 590 l 1,34,-1
 105 590 l 1,30,-1
105 421 m 1,35,-1
 105 526 l 1,36,-1
 0 526 l 1,37,-1
 0 421 l 1,38,-1
 105 421 l 1,39,-1
 105 421 l 1,35,-1
105 337 m 1,40,-1
 105 441 l 1,41,-1
 0 441 l 1,42,-1
 0 337 l 1,43,-1
 105 337 l 1,44,-1
 105 337 l 1,40,-1
189 337 m 1,45,-1
 189 441 l 1,46,-1
 85 441 l 1,47,-1
 85 337 l 1,48,-1
 189 337 l 1,49,-1
 189 337 l 1,45,-1
274 337 m 1,50,-1
 274 441 l 1,51,-1
 169 441 l 1,52,-1
 169 337 l 1,53,-1
 274 337 l 1,54,-1
 274 337 l 1,50,-1
358 337 m 1,55,-1
 358 441 l 1,56,-1
 253 441 l 1,57,-1
 253 337 l 1,58,-1
 358 337 l 1,59,-1
 358 337 l 1,55,-1
442 168 m 1,60,-1
 442 273 l 1,61,-1
 338 273 l 1,62,-1
 338 168 l 1,63,-1
 442 168 l 1,64,-1
 442 168 l 1,60,-1
442 253 m 1,65,-1
 442 357 l 1,66,-1
 338 357 l 1,67,-1
 338 253 l 1,68,-1
 442 253 l 1,69,-1
 442 253 l 1,65,-1
442 84 m 1,70,-1
 442 188 l 1,71,-1
 338 188 l 1,72,-1
 338 84 l 1,73,-1
 442 84 l 1,74,-1
 442 84 l 1,70,-1
189 0 m 1,75,-1
 189 104 l 1,76,-1
 85 104 l 1,77,-1
 85 0 l 1,78,-1
 189 0 l 1,79,-1
 189 0 l 1,75,-1
274 0 m 1,80,-1
 274 104 l 1,81,-1
 169 104 l 1,82,-1
 169 0 l 1,83,-1
 274 0 l 1,84,-1
 274 0 l 1,80,-1
358 0 m 1,85,-1
 358 104 l 1,86,-1
 253 104 l 1,87,-1
 253 0 l 1,88,-1
 358 0 l 1,89,-1
 358 0 l 1,85,-1
EndSplineSet
EndChar

StartChar: six
Encoding: 54 54 15
Width: 542
GlyphClass: 1
Flags: W
LayerCount: 2
Fore
SplineSet
358 590 m 1,0,-1
 358 694 l 1,1,-1
 253 694 l 1,2,-1
 253 590 l 1,3,-1
 358 590 l 1,4,-1
 358 590 l 1,0,-1
274 590 m 1,5,-1
 274 694 l 1,6,-1
 169 694 l 1,7,-1
 169 590 l 1,8,-1
 274 590 l 1,9,-1
 274 590 l 1,5,-1
442 253 m 1,10,-1
 442 357 l 1,11,-1
 338 357 l 1,12,-1
 338 253 l 1,13,-1
 442 253 l 1,14,-1
 442 253 l 1,10,-1
442 168 m 1,15,-1
 442 273 l 1,16,-1
 338 273 l 1,17,-1
 338 168 l 1,18,-1
 442 168 l 1,19,-1
 442 168 l 1,15,-1
358 337 m 1,20,-1
 358 441 l 1,21,-1
 253 441 l 1,22,-1
 253 337 l 1,23,-1
 358 337 l 1,24,-1
 358 337 l 1,20,-1
274 337 m 1,25,-1
 274 441 l 1,26,-1
 169 441 l 1,27,-1
 169 337 l 1,28,-1
 274 337 l 1,29,-1
 274 337 l 1,25,-1
189 337 m 1,30,-1
 189 441 l 1,31,-1
 85 441 l 1,32,-1
 85 337 l 1,33,-1
 189 337 l 1,34,-1
 189 337 l 1,30,-1
189 506 m 1,35,-1
 189 610 l 1,36,-1
 85 610 l 1,37,-1
 85 506 l 1,38,-1
 189 506 l 1,39,-1
 189 506 l 1,35,-1
105 421 m 1,40,-1
 105 526 l 1,41,-1
 0 526 l 1,42,-1
 0 421 l 1,43,-1
 105 421 l 1,44,-1
 105 421 l 1,40,-1
105 84 m 1,45,-1
 105 188 l 1,46,-1
 0 188 l 1,47,-1
 0 84 l 1,48,-1
 105 84 l 1,49,-1
 105 84 l 1,45,-1
105 168 m 1,50,-1
 105 273 l 1,51,-1
 0 273 l 1,52,-1
 0 168 l 1,53,-1
 105 168 l 1,54,-1
 105 168 l 1,50,-1
105 253 m 1,55,-1
 105 357 l 1,56,-1
 0 357 l 1,57,-1
 0 253 l 1,58,-1
 105 253 l 1,59,-1
 105 253 l 1,55,-1
105 337 m 1,60,-1
 105 441 l 1,61,-1
 0 441 l 1,62,-1
 0 337 l 1,63,-1
 105 337 l 1,64,-1
 105 337 l 1,60,-1
442 84 m 1,65,-1
 442 188 l 1,66,-1
 338 188 l 1,67,-1
 338 84 l 1,68,-1
 442 84 l 1,69,-1
 442 84 l 1,65,-1
358 0 m 1,70,-1
 358 104 l 1,71,-1
 253 104 l 1,72,-1
 253 0 l 1,73,-1
 358 0 l 1,74,-1
 358 0 l 1,70,-1
274 0 m 1,75,-1
 274 104 l 1,76,-1
 169 104 l 1,77,-1
 169 0 l 1,78,-1
 274 0 l 1,79,-1
 274 0 l 1,75,-1
189 0 m 1,80,-1
 189 104 l 1,81,-1
 85 104 l 1,82,-1
 85 0 l 1,83,-1
 189 0 l 1,84,-1
 189 0 l 1,80,-1
EndSplineSet
EndChar

StartChar: seven
Encoding: 55 55 16
Width: 542
GlyphClass: 1
Flags: W
LayerCount: 2
Fore
SplineSet
358 590 m 1,0,-1
 358 694 l 1,1,-1
 253 694 l 1,2,-1
 253 590 l 1,3,-1
 358 590 l 1,4,-1
 358 590 l 1,0,-1
442 590 m 1,5,-1
 442 694 l 1,6,-1
 338 694 l 1,7,-1
 338 590 l 1,8,-1
 442 590 l 1,9,-1
 442 590 l 1,5,-1
274 590 m 1,10,-1
 274 694 l 1,11,-1
 169 694 l 1,12,-1
 169 590 l 1,13,-1
 274 590 l 1,14,-1
 274 590 l 1,10,-1
189 590 m 1,15,-1
 189 694 l 1,16,-1
 85 694 l 1,17,-1
 85 590 l 1,18,-1
 189 590 l 1,19,-1
 189 590 l 1,15,-1
442 506 m 1,20,-1
 442 610 l 1,21,-1
 338 610 l 1,22,-1
 338 506 l 1,23,-1
 442 506 l 1,24,-1
 442 506 l 1,20,-1
442 421 m 1,25,-1
 442 526 l 1,26,-1
 338 526 l 1,27,-1
 338 421 l 1,28,-1
 442 421 l 1,29,-1
 442 421 l 1,25,-1
105 590 m 1,30,-1
 105 694 l 1,31,-1
 0 694 l 1,32,-1
 0 590 l 1,33,-1
 105 590 l 1,34,-1
 105 590 l 1,30,-1
358 337 m 1,35,-1
 358 441 l 1,36,-1
 253 441 l 1,37,-1
 253 337 l 1,38,-1
 358 337 l 1,39,-1
 358 337 l 1,35,-1
358 253 m 1,40,-1
 358 357 l 1,41,-1
 253 357 l 1,42,-1
 253 253 l 1,43,-1
 358 253 l 1,44,-1
 358 253 l 1,40,-1
274 168 m 1,45,-1
 274 273 l 1,46,-1
 169 273 l 1,47,-1
 169 168 l 1,48,-1
 274 168 l 1,49,-1
 274 168 l 1,45,-1
274 84 m 1,50,-1
 274 188 l 1,51,-1
 169 188 l 1,52,-1
 169 84 l 1,53,-1
 274 84 l 1,54,-1
 274 84 l 1,50,-1
274 0 m 1,55,-1
 274 104 l 1,56,-1
 169 104 l 1,57,-1
 169 0 l 1,58,-1
 274 0 l 1,59,-1
 274 0 l 1,55,-1
EndSplineSet
EndChar

StartChar: eight
Encoding: 56 56 17
Width: 542
GlyphClass: 1
Flags: W
LayerCount: 2
Fore
SplineSet
358 590 m 1,0,-1
 358 694 l 1,1,-1
 253 694 l 1,2,-1
 253 590 l 1,3,-1
 358 590 l 1,4,-1
 358 590 l 1,0,-1
274 590 m 1,5,-1
 274 694 l 1,6,-1
 169 694 l 1,7,-1
 169 590 l 1,8,-1
 274 590 l 1,9,-1
 274 590 l 1,5,-1
442 421 m 1,10,-1
 442 526 l 1,11,-1
 338 526 l 1,12,-1
 338 421 l 1,13,-1
 442 421 l 1,14,-1
 442 421 l 1,10,-1
442 506 m 1,15,-1
 442 610 l 1,16,-1
 338 610 l 1,17,-1
 338 506 l 1,18,-1
 442 506 l 1,19,-1
 442 506 l 1,15,-1
189 590 m 1,20,-1
 189 694 l 1,21,-1
 85 694 l 1,22,-1
 85 590 l 1,23,-1
 189 590 l 1,24,-1
 189 590 l 1,20,-1
274 337 m 1,25,-1
 274 441 l 1,26,-1
 169 441 l 1,27,-1
 169 337 l 1,28,-1
 274 337 l 1,29,-1
 274 337 l 1,25,-1
358 337 m 1,30,-1
 358 441 l 1,31,-1
 253 441 l 1,32,-1
 253 337 l 1,33,-1
 358 337 l 1,34,-1
 358 337 l 1,30,-1
189 337 m 1,35,-1
 189 441 l 1,36,-1
 85 441 l 1,37,-1
 85 337 l 1,38,-1
 189 337 l 1,39,-1
 189 337 l 1,35,-1
442 253 m 1,40,-1
 442 357 l 1,41,-1
 338 357 l 1,42,-1
 338 253 l 1,43,-1
 442 253 l 1,44,-1
 442 253 l 1,40,-1
442 168 m 1,45,-1
 442 273 l 1,46,-1
 338 273 l 1,47,-1
 338 168 l 1,48,-1
 442 168 l 1,49,-1
 442 168 l 1,45,-1
105 506 m 1,50,-1
 105 610 l 1,51,-1
 0 610 l 1,52,-1
 0 506 l 1,53,-1
 105 506 l 1,54,-1
 105 506 l 1,50,-1
105 421 m 1,55,-1
 105 526 l 1,56,-1
 0 526 l 1,57,-1
 0 421 l 1,58,-1
 105 421 l 1,59,-1
 105 421 l 1,55,-1
105 253 m 1,60,-1
 105 357 l 1,61,-1
 0 357 l 1,62,-1
 0 253 l 1,63,-1
 105 253 l 1,64,-1
 105 253 l 1,60,-1
105 168 m 1,65,-1
 105 273 l 1,66,-1
 0 273 l 1,67,-1
 0 168 l 1,68,-1
 105 168 l 1,69,-1
 105 168 l 1,65,-1
105 84 m 1,70,-1
 105 188 l 1,71,-1
 0 188 l 1,72,-1
 0 84 l 1,73,-1
 105 84 l 1,74,-1
 105 84 l 1,70,-1
442 84 m 1,75,-1
 442 188 l 1,76,-1
 338 188 l 1,77,-1
 338 84 l 1,78,-1
 442 84 l 1,79,-1
 442 84 l 1,75,-1
358 0 m 1,80,-1
 358 104 l 1,81,-1
 253 104 l 1,82,-1
 253 0 l 1,83,-1
 358 0 l 1,84,-1
 358 0 l 1,80,-1
274 0 m 1,85,-1
 274 104 l 1,86,-1
 169 104 l 1,87,-1
 169 0 l 1,88,-1
 274 0 l 1,89,-1
 274 0 l 1,85,-1
189 0 m 1,90,-1
 189 104 l 1,91,-1
 85 104 l 1,92,-1
 85 0 l 1,93,-1
 189 0 l 1,94,-1
 189 0 l 1,90,-1
EndSplineSet
EndChar

StartChar: nine
Encoding: 57 57 18
Width: 542
GlyphClass: 1
Flags: W
LayerCount: 2
Fore
SplineSet
274 590 m 1,0,-1
 274 694 l 1,1,-1
 169 694 l 1,2,-1
 169 590 l 1,3,-1
 274 590 l 1,4,-1
 274 590 l 1,0,-1
442 421 m 1,5,-1
 442 526 l 1,6,-1
 338 526 l 1,7,-1
 338 421 l 1,8,-1
 442 421 l 1,9,-1
 442 421 l 1,5,-1
358 590 m 1,10,-1
 358 694 l 1,11,-1
 253 694 l 1,12,-1
 253 590 l 1,13,-1
 358 590 l 1,14,-1
 358 590 l 1,10,-1
442 337 m 1,15,-1
 442 441 l 1,16,-1
 338 441 l 1,17,-1
 338 337 l 1,18,-1
 442 337 l 1,19,-1
 442 337 l 1,15,-1
442 506 m 1,20,-1
 442 610 l 1,21,-1
 338 610 l 1,22,-1
 338 506 l 1,23,-1
 442 506 l 1,24,-1
 442 506 l 1,20,-1
189 590 m 1,25,-1
 189 694 l 1,26,-1
 85 694 l 1,27,-1
 85 590 l 1,28,-1
 189 590 l 1,29,-1
 189 590 l 1,25,-1
105 506 m 1,30,-1
 105 610 l 1,31,-1
 0 610 l 1,32,-1
 0 506 l 1,33,-1
 105 506 l 1,34,-1
 105 506 l 1,30,-1
105 421 m 1,35,-1
 105 526 l 1,36,-1
 0 526 l 1,37,-1
 0 421 l 1,38,-1
 105 421 l 1,39,-1
 105 421 l 1,35,-1
105 337 m 1,40,-1
 105 441 l 1,41,-1
 0 441 l 1,42,-1
 0 337 l 1,43,-1
 105 337 l 1,44,-1
 105 337 l 1,40,-1
442 253 m 1,45,-1
 442 357 l 1,46,-1
 338 357 l 1,47,-1
 338 253 l 1,48,-1
 442 253 l 1,49,-1
 442 253 l 1,45,-1
274 253 m 1,50,-1
 274 357 l 1,51,-1
 169 357 l 1,52,-1
 169 253 l 1,53,-1
 274 253 l 1,54,-1
 274 253 l 1,50,-1
358 253 m 1,55,-1
 358 357 l 1,56,-1
 253 357 l 1,57,-1
 253 253 l 1,58,-1
 358 253 l 1,59,-1
 358 253 l 1,55,-1
189 253 m 1,60,-1
 189 357 l 1,61,-1
 85 357 l 1,62,-1
 85 253 l 1,63,-1
 189 253 l 1,64,-1
 189 253 l 1,60,-1
442 168 m 1,65,-1
 442 273 l 1,66,-1
 338 273 l 1,67,-1
 338 168 l 1,68,-1
 442 168 l 1,69,-1
 442 168 l 1,65,-1
358 84 m 1,70,-1
 358 188 l 1,71,-1
 253 188 l 1,72,-1
 253 84 l 1,73,-1
 358 84 l 1,74,-1
 358 84 l 1,70,-1
274 0 m 1,75,-1
 274 104 l 1,76,-1
 169 104 l 1,77,-1
 169 0 l 1,78,-1
 274 0 l 1,79,-1
 274 0 l 1,75,-1
189 0 m 1,80,-1
 189 104 l 1,81,-1
 85 104 l 1,82,-1
 85 0 l 1,83,-1
 189 0 l 1,84,-1
 189 0 l 1,80,-1
EndSplineSet
EndChar

StartChar: colon
Encoding: 58 58 19
Width: 205
GlyphClass: 1
Flags: W
LayerCount: 2
Fore
SplineSet
106 0 m 1,0,-1
 106 104 l 1,1,-1
 1 104 l 1,2,-1
 1 0 l 1,3,-1
 106 0 l 1,4,-1
 106 0 l 1,0,-1
106 421 m 1,5,-1
 106 526 l 1,6,-1
 1 526 l 1,7,-1
 1 421 l 1,8,-1
 106 421 l 1,9,-1
 106 421 l 1,5,-1
EndSplineSet
EndChar

StartChar: less
Encoding: 60 60 20
Width: 459
GlyphClass: 1
Flags: W
LayerCount: 2
Fore
SplineSet
443 506 m 1,0,-1
 443 610 l 1,1,-1
 338 610 l 1,2,-1
 338 506 l 1,3,-1
 443 506 l 1,4,-1
 443 506 l 1,0,-1
358 421 m 1,5,-1
 358 526 l 1,6,-1
 253 526 l 1,7,-1
 253 421 l 1,8,-1
 358 421 l 1,9,-1
 358 421 l 1,5,-1
274 337 m 1,10,-1
 274 441 l 1,11,-1
 169 441 l 1,12,-1
 169 337 l 1,13,-1
 274 337 l 1,14,-1
 274 337 l 1,10,-1
189 252 m 1,15,-1
 189 357 l 1,16,-1
 84 357 l 1,17,-1
 84 252 l 1,18,-1
 189 252 l 1,19,-1
 189 252 l 1,15,-1
274 168 m 1,20,-1
 274 272 l 1,21,-1
 169 272 l 1,22,-1
 169 168 l 1,23,-1
 274 168 l 1,24,-1
 274 168 l 1,20,-1
358 83 m 1,25,-1
 358 188 l 1,26,-1
 253 188 l 1,27,-1
 253 83 l 1,28,-1
 358 83 l 1,29,-1
 358 83 l 1,25,-1
443 0 m 1,30,-1
 443 103 l 1,31,-1
 338 103 l 1,32,-1
 338 0 l 1,33,-1
 443 0 l 1,34,-1
 443 0 l 1,30,-1
EndSplineSet
EndChar

StartChar: greater
Encoding: 62 62 21
Width: 459
GlyphClass: 1
Flags: W
LayerCount: 2
Fore
SplineSet
274 421 m 1,0,-1
 274 526 l 1,1,-1
 169 526 l 1,2,-1
 169 421 l 1,3,-1
 274 421 l 1,4,-1
 274 421 l 1,0,-1
189 506 m 1,5,-1
 189 610 l 1,6,-1
 84 610 l 1,7,-1
 84 506 l 1,8,-1
 189 506 l 1,9,-1
 189 506 l 1,5,-1
358 337 m 1,10,-1
 358 441 l 1,11,-1
 253 441 l 1,12,-1
 253 337 l 1,13,-1
 358 337 l 1,14,-1
 358 337 l 1,10,-1
443 252 m 1,15,-1
 443 357 l 1,16,-1
 338 357 l 1,17,-1
 338 252 l 1,18,-1
 443 252 l 1,19,-1
 443 252 l 1,15,-1
358 168 m 1,20,-1
 358 272 l 1,21,-1
 253 272 l 1,22,-1
 253 168 l 1,23,-1
 358 168 l 1,24,-1
 358 168 l 1,20,-1
274 83 m 1,25,-1
 274 188 l 1,26,-1
 169 188 l 1,27,-1
 169 83 l 1,28,-1
 274 83 l 1,29,-1
 274 83 l 1,25,-1
189 0 m 1,30,-1
 189 103 l 1,31,-1
 84 103 l 1,32,-1
 84 0 l 1,33,-1
 189 0 l 1,34,-1
 189 0 l 1,30,-1
EndSplineSet
EndChar

StartChar: question
Encoding: 63 63 22
Width: 542
GlyphClass: 1
Flags: W
LayerCount: 2
Fore
SplineSet
274 590 m 1,0,-1
 274 694 l 1,1,-1
 169 694 l 1,2,-1
 169 590 l 1,3,-1
 274 590 l 1,4,-1
 274 590 l 1,0,-1
358 590 m 1,5,-1
 358 694 l 1,6,-1
 253 694 l 1,7,-1
 253 590 l 1,8,-1
 358 590 l 1,9,-1
 358 590 l 1,5,-1
189 590 m 1,10,-1
 189 694 l 1,11,-1
 85 694 l 1,12,-1
 85 590 l 1,13,-1
 189 590 l 1,14,-1
 189 590 l 1,10,-1
442 506 m 1,15,-1
 442 610 l 1,16,-1
 338 610 l 1,17,-1
 338 506 l 1,18,-1
 442 506 l 1,19,-1
 442 506 l 1,15,-1
442 421 m 1,20,-1
 442 526 l 1,21,-1
 338 526 l 1,22,-1
 338 421 l 1,23,-1
 442 421 l 1,24,-1
 442 421 l 1,20,-1
105 506 m 1,25,-1
 105 610 l 1,26,-1
 0 610 l 1,27,-1
 0 506 l 1,28,-1
 105 506 l 1,29,-1
 105 506 l 1,25,-1
358 337 m 1,30,-1
 358 441 l 1,31,-1
 253 441 l 1,32,-1
 253 337 l 1,33,-1
 358 337 l 1,34,-1
 358 337 l 1,30,-1
274 253 m 1,35,-1
 274 357 l 1,36,-1
 169 357 l 1,37,-1
 169 253 l 1,38,-1
 274 253 l 1,39,-1
 274 253 l 1,35,-1
274 168 m 1,40,-1
 274 273 l 1,41,-1
 169 273 l 1,42,-1
 169 168 l 1,43,-1
 274 168 l 1,44,-1
 274 168 l 1,40,-1
274 0 m 1,45,-1
 274 104 l 1,46,-1
 169 104 l 1,47,-1
 169 0 l 1,48,-1
 274 0 l 1,49,-1
 274 0 l 1,45,-1
EndSplineSet
EndChar

StartChar: A
Encoding: 65 65 23
Width: 542
GlyphClass: 1
Flags: W
LayerCount: 2
Fore
SplineSet
190 590 m 1,0,-1
 190 694 l 1,1,-1
 85 694 l 1,2,-1
 85 590 l 1,3,-1
 190 590 l 1,4,-1
 190 590 l 1,0,-1
274 590 m 1,5,-1
 274 694 l 1,6,-1
 169 694 l 1,7,-1
 169 590 l 1,8,-1
 274 590 l 1,9,-1
 274 590 l 1,5,-1
359 590 m 1,10,-1
 359 694 l 1,11,-1
 254 694 l 1,12,-1
 254 590 l 1,13,-1
 359 590 l 1,14,-1
 359 590 l 1,10,-1
359 253 m 1,15,-1
 359 357 l 1,16,-1
 254 357 l 1,17,-1
 254 253 l 1,18,-1
 359 253 l 1,19,-1
 359 253 l 1,15,-1
274 253 m 1,20,-1
 274 357 l 1,21,-1
 169 357 l 1,22,-1
 169 253 l 1,23,-1
 274 253 l 1,24,-1
 274 253 l 1,20,-1
85 337 m 1,25,-1
 338 337 l 1,26,-1
 85 337 l 1,27,-1
 85 337 l 1,25,-1
190 253 m 1,28,-1
 190 357 l 1,29,-1
 85 357 l 1,30,-1
 85 253 l 1,31,-1
 190 253 l 1,32,-1
 190 253 l 1,28,-1
443 506 m 1,33,-1
 443 610 l 1,34,-1
 338 610 l 1,35,-1
 338 506 l 1,36,-1
 443 506 l 1,37,-1
 443 506 l 1,33,-1
443 421 m 1,38,-1
 443 526 l 1,39,-1
 338 526 l 1,40,-1
 338 421 l 1,41,-1
 443 421 l 1,42,-1
 443 421 l 1,38,-1
443 337 m 1,43,-1
 443 441 l 1,44,-1
 338 441 l 1,45,-1
 338 337 l 1,46,-1
 443 337 l 1,47,-1
 443 337 l 1,43,-1
443 253 m 1,48,-1
 443 357 l 1,49,-1
 338 357 l 1,50,-1
 338 253 l 1,51,-1
 443 253 l 1,52,-1
 443 253 l 1,48,-1
443 168 m 1,53,-1
 443 273 l 1,54,-1
 338 273 l 1,55,-1
 338 168 l 1,56,-1
 443 168 l 1,57,-1
 443 168 l 1,53,-1
443 84 m 1,58,-1
 443 188 l 1,59,-1
 338 188 l 1,60,-1
 338 84 l 1,61,-1
 443 84 l 1,62,-1
 443 84 l 1,58,-1
443 0 m 1,63,-1
 443 104 l 1,64,-1
 338 104 l 1,65,-1
 338 0 l 1,66,-1
 443 0 l 1,67,-1
 443 0 l 1,63,-1
106 506 m 1,68,-1
 106 610 l 1,69,-1
 1 610 l 1,70,-1
 1 506 l 1,71,-1
 106 506 l 1,72,-1
 106 506 l 1,68,-1
106 421 m 1,73,-1
 106 526 l 1,74,-1
 1 526 l 1,75,-1
 1 421 l 1,76,-1
 106 421 l 1,77,-1
 106 421 l 1,73,-1
106 337 m 1,78,-1
 106 441 l 1,79,-1
 1 441 l 1,80,-1
 1 337 l 1,81,-1
 106 337 l 1,82,-1
 106 337 l 1,78,-1
106 253 m 1,83,-1
 106 357 l 1,84,-1
 1 357 l 1,85,-1
 1 253 l 1,86,-1
 106 253 l 1,87,-1
 106 253 l 1,83,-1
106 168 m 1,88,-1
 106 273 l 1,89,-1
 1 273 l 1,90,-1
 1 168 l 1,91,-1
 106 168 l 1,92,-1
 106 168 l 1,88,-1
106 84 m 1,93,-1
 106 188 l 1,94,-1
 1 188 l 1,95,-1
 1 84 l 1,96,-1
 106 84 l 1,97,-1
 106 84 l 1,93,-1
106 0 m 1,98,-1
 106 104 l 1,99,-1
 1 104 l 1,100,-1
 1 0 l 1,101,-1
 106 0 l 1,102,-1
 106 0 l 1,98,-1
EndSplineSet
EndChar

StartChar: B
Encoding: 66 66 24
Width: 542
GlyphClass: 1
Flags: W
LayerCount: 2
Fore
SplineSet
359 590 m 1,0,-1
 359 694 l 1,1,-1
 254 694 l 1,2,-1
 254 590 l 1,3,-1
 359 590 l 1,4,-1
 359 590 l 1,0,-1
106 506 m 1,5,-1
 106 610 l 1,6,-1
 1 610 l 1,7,-1
 1 506 l 1,8,-1
 106 506 l 1,9,-1
 106 506 l 1,5,-1
106 421 m 1,10,-1
 106 526 l 1,11,-1
 1 526 l 1,12,-1
 1 421 l 1,13,-1
 106 421 l 1,14,-1
 106 421 l 1,10,-1
190 590 m 1,15,-1
 190 694 l 1,16,-1
 85 694 l 1,17,-1
 85 590 l 1,18,-1
 190 590 l 1,19,-1
 190 590 l 1,15,-1
443 421 m 1,20,-1
 443 526 l 1,21,-1
 338 526 l 1,22,-1
 338 421 l 1,23,-1
 443 421 l 1,24,-1
 443 421 l 1,20,-1
359 337 m 1,25,-1
 359 441 l 1,26,-1
 254 441 l 1,27,-1
 254 337 l 1,28,-1
 359 337 l 1,29,-1
 359 337 l 1,25,-1
274 337 m 1,30,-1
 274 441 l 1,31,-1
 169 441 l 1,32,-1
 169 337 l 1,33,-1
 274 337 l 1,34,-1
 274 337 l 1,30,-1
443 168 m 1,35,-1
 443 273 l 1,36,-1
 338 273 l 1,37,-1
 338 168 l 1,38,-1
 443 168 l 1,39,-1
 443 168 l 1,35,-1
190 337 m 1,40,-1
 190 441 l 1,41,-1
 85 441 l 1,42,-1
 85 337 l 1,43,-1
 190 337 l 1,44,-1
 190 337 l 1,40,-1
106 253 m 1,45,-1
 106 357 l 1,46,-1
 1 357 l 1,47,-1
 1 253 l 1,48,-1
 106 253 l 1,49,-1
 106 253 l 1,45,-1
106 84 m 1,50,-1
 106 188 l 1,51,-1
 1 188 l 1,52,-1
 1 84 l 1,53,-1
 106 84 l 1,54,-1
 106 84 l 1,50,-1
359 0 m 1,55,-1
 359 104 l 1,56,-1
 254 104 l 1,57,-1
 254 0 l 1,58,-1
 359 0 l 1,59,-1
 359 0 l 1,55,-1
190 0 m 1,60,-1
 190 104 l 1,61,-1
 85 104 l 1,62,-1
 85 0 l 1,63,-1
 190 0 l 1,64,-1
 190 0 l 1,60,-1
274 0 m 1,65,-1
 274 104 l 1,66,-1
 169 104 l 1,67,-1
 169 0 l 1,68,-1
 274 0 l 1,69,-1
 274 0 l 1,65,-1
443 84 m 1,70,-1
 443 188 l 1,71,-1
 338 188 l 1,72,-1
 338 84 l 1,73,-1
 443 84 l 1,74,-1
 443 84 l 1,70,-1
443 253 m 1,75,-1
 443 357 l 1,76,-1
 338 357 l 1,77,-1
 338 253 l 1,78,-1
 443 253 l 1,79,-1
 443 253 l 1,75,-1
443 506 m 1,80,-1
 443 610 l 1,81,-1
 338 610 l 1,82,-1
 338 506 l 1,83,-1
 443 506 l 1,84,-1
 443 506 l 1,80,-1
274 590 m 1,85,-1
 274 694 l 1,86,-1
 169 694 l 1,87,-1
 169 590 l 1,88,-1
 274 590 l 1,89,-1
 274 590 l 1,85,-1
106 590 m 1,90,-1
 106 694 l 1,91,-1
 1 694 l 1,92,-1
 1 590 l 1,93,-1
 106 590 l 1,94,-1
 106 590 l 1,90,-1
106 168 m 1,95,-1
 106 273 l 1,96,-1
 1 273 l 1,97,-1
 1 168 l 1,98,-1
 106 168 l 1,99,-1
 106 168 l 1,95,-1
106 337 m 1,100,-1
 106 441 l 1,101,-1
 1 441 l 1,102,-1
 1 337 l 1,103,-1
 106 337 l 1,104,-1
 106 337 l 1,100,-1
106 0 m 1,105,-1
 106 104 l 1,106,-1
 1 104 l 1,107,-1
 1 0 l 1,108,-1
 106 0 l 1,109,-1
 106 0 l 1,105,-1
EndSplineSet
EndChar

StartChar: C
Encoding: 67 67 25
Width: 542
GlyphClass: 1
Flags: W
LayerCount: 2
Fore
SplineSet
358 590 m 1,0,-1
 358 694 l 1,1,-1
 253 694 l 1,2,-1
 253 590 l 1,3,-1
 358 590 l 1,4,-1
 358 590 l 1,0,-1
274 590 m 1,5,-1
 274 694 l 1,6,-1
 169 694 l 1,7,-1
 169 590 l 1,8,-1
 274 590 l 1,9,-1
 274 590 l 1,5,-1
442 506 m 1,10,-1
 442 610 l 1,11,-1
 338 610 l 1,12,-1
 338 506 l 1,13,-1
 442 506 l 1,14,-1
 442 506 l 1,10,-1
189 590 m 1,15,-1
 189 694 l 1,16,-1
 85 694 l 1,17,-1
 85 590 l 1,18,-1
 189 590 l 1,19,-1
 189 590 l 1,15,-1
105 337 m 1,20,-1
 105 441 l 1,21,-1
 0 441 l 1,22,-1
 0 337 l 1,23,-1
 105 337 l 1,24,-1
 105 337 l 1,20,-1
105 168 m 1,25,-1
 105 273 l 1,26,-1
 0 273 l 1,27,-1
 0 168 l 1,28,-1
 105 168 l 1,29,-1
 105 168 l 1,25,-1
105 506 m 1,30,-1
 105 610 l 1,31,-1
 0 610 l 1,32,-1
 0 506 l 1,33,-1
 105 506 l 1,34,-1
 105 506 l 1,30,-1
105 421 m 1,35,-1
 105 526 l 1,36,-1
 0 526 l 1,37,-1
 0 421 l 1,38,-1
 105 421 l 1,39,-1
 105 421 l 1,35,-1
105 253 m 1,40,-1
 105 357 l 1,41,-1
 0 357 l 1,42,-1
 0 253 l 1,43,-1
 105 253 l 1,44,-1
 105 253 l 1,40,-1
105 84 m 1,45,-1
 105 188 l 1,46,-1
 0 188 l 1,47,-1
 0 84 l 1,48,-1
 105 84 l 1,49,-1
 105 84 l 1,45,-1
442 84 m 1,50,-1
 442 188 l 1,51,-1
 338 188 l 1,52,-1
 338 84 l 1,53,-1
 442 84 l 1,54,-1
 442 84 l 1,50,-1
358 0 m 1,55,-1
 358 104 l 1,56,-1
 253 104 l 1,57,-1
 253 0 l 1,58,-1
 358 0 l 1,59,-1
 358 0 l 1,55,-1
189 0 m 1,60,-1
 189 104 l 1,61,-1
 85 104 l 1,62,-1
 85 0 l 1,63,-1
 189 0 l 1,64,-1
 189 0 l 1,60,-1
274 0 m 1,65,-1
 274 104 l 1,66,-1
 169 104 l 1,67,-1
 169 0 l 1,68,-1
 274 0 l 1,69,-1
 274 0 l 1,65,-1
EndSplineSet
EndChar

StartChar: D
Encoding: 68 68 26
Width: 542
GlyphClass: 1
Flags: W
LayerCount: 2
Fore
SplineSet
105 337 m 1,0,-1
 105 441 l 1,1,-1
 0 441 l 1,2,-1
 0 337 l 1,3,-1
 105 337 l 1,4,-1
 105 337 l 1,0,-1
105 421 m 1,5,-1
 105 526 l 1,6,-1
 0 526 l 1,7,-1
 0 421 l 1,8,-1
 105 421 l 1,9,-1
 105 421 l 1,5,-1
105 506 m 1,10,-1
 105 610 l 1,11,-1
 0 610 l 1,12,-1
 0 506 l 1,13,-1
 105 506 l 1,14,-1
 105 506 l 1,10,-1
105 0 m 1,15,-1
 105 104 l 1,16,-1
 0 104 l 1,17,-1
 0 0 l 1,18,-1
 105 0 l 1,19,-1
 105 0 l 1,15,-1
358 590 m 1,20,-1
 358 694 l 1,21,-1
 253 694 l 1,22,-1
 253 590 l 1,23,-1
 358 590 l 1,24,-1
 358 590 l 1,20,-1
274 590 m 1,25,-1
 274 694 l 1,26,-1
 169 694 l 1,27,-1
 169 590 l 1,28,-1
 274 590 l 1,29,-1
 274 590 l 1,25,-1
189 590 m 1,30,-1
 189 694 l 1,31,-1
 85 694 l 1,32,-1
 85 590 l 1,33,-1
 189 590 l 1,34,-1
 189 590 l 1,30,-1
105 84 m 1,35,-1
 105 188 l 1,36,-1
 0 188 l 1,37,-1
 0 84 l 1,38,-1
 105 84 l 1,39,-1
 105 84 l 1,35,-1
105 168 m 1,40,-1
 105 273 l 1,41,-1
 0 273 l 1,42,-1
 0 168 l 1,43,-1
 105 168 l 1,44,-1
 105 168 l 1,40,-1
105 253 m 1,45,-1
 105 357 l 1,46,-1
 0 357 l 1,47,-1
 0 253 l 1,48,-1
 105 253 l 1,49,-1
 105 253 l 1,45,-1
85 337 m 1,50,-1
 0 337 l 1,51,-1
 85 337 l 1,52,-1
 85 337 l 1,50,-1
0 590 m 1,53,-1
 85 590 l 1,54,-1
 0 590 l 1,55,-1
 105 590 l 1,56,-1
 105 694 l 1,57,-1
 0 694 l 1,58,-1
 0 590 l 1,59,-1
 0 590 l 1,53,-1
442 506 m 1,60,-1
 442 610 l 1,61,-1
 338 610 l 1,62,-1
 338 506 l 1,63,-1
 442 506 l 1,64,-1
 442 506 l 1,60,-1
442 421 m 1,65,-1
 442 526 l 1,66,-1
 338 526 l 1,67,-1
 338 421 l 1,68,-1
 442 421 l 1,69,-1
 442 421 l 1,65,-1
442 337 m 1,70,-1
 442 441 l 1,71,-1
 338 441 l 1,72,-1
 338 337 l 1,73,-1
 442 337 l 1,74,-1
 442 337 l 1,70,-1
442 253 m 1,75,-1
 442 357 l 1,76,-1
 338 357 l 1,77,-1
 338 253 l 1,78,-1
 442 253 l 1,79,-1
 442 253 l 1,75,-1
442 168 m 1,80,-1
 442 273 l 1,81,-1
 338 273 l 1,82,-1
 338 168 l 1,83,-1
 442 168 l 1,84,-1
 442 168 l 1,80,-1
442 84 m 1,85,-1
 442 188 l 1,86,-1
 338 188 l 1,87,-1
 338 84 l 1,88,-1
 442 84 l 1,89,-1
 442 84 l 1,85,-1
358 0 m 1,90,-1
 358 104 l 1,91,-1
 253 104 l 1,92,-1
 253 0 l 1,93,-1
 358 0 l 1,94,-1
 358 0 l 1,90,-1
274 0 m 1,95,-1
 274 104 l 1,96,-1
 169 104 l 1,97,-1
 169 0 l 1,98,-1
 274 0 l 1,99,-1
 274 0 l 1,95,-1
189 0 m 1,100,-1
 189 104 l 1,101,-1
 85 104 l 1,102,-1
 85 0 l 1,103,-1
 189 0 l 1,104,-1
 189 0 l 1,100,-1
EndSplineSet
EndChar

StartChar: E
Encoding: 69 69 27
Width: 542
GlyphClass: 1
Flags: W
LayerCount: 2
Fore
SplineSet
105 0 m 1,0,-1
 105 104 l 1,1,-1
 0 104 l 1,2,-1
 0 0 l 1,3,-1
 105 0 l 1,4,-1
 105 0 l 1,0,-1
189 0 m 1,5,-1
 189 104 l 1,6,-1
 85 104 l 1,7,-1
 85 0 l 1,8,-1
 189 0 l 1,9,-1
 189 0 l 1,5,-1
274 0 m 1,10,-1
 274 104 l 1,11,-1
 169 104 l 1,12,-1
 169 0 l 1,13,-1
 274 0 l 1,14,-1
 274 0 l 1,10,-1
358 0 m 1,15,-1
 358 104 l 1,16,-1
 253 104 l 1,17,-1
 253 0 l 1,18,-1
 358 0 l 1,19,-1
 358 0 l 1,15,-1
442 0 m 1,20,-1
 442 104 l 1,21,-1
 338 104 l 1,22,-1
 338 0 l 1,23,-1
 442 0 l 1,24,-1
 442 0 l 1,20,-1
105 84 m 1,25,-1
 105 188 l 1,26,-1
 0 188 l 1,27,-1
 0 84 l 1,28,-1
 105 84 l 1,29,-1
 105 84 l 1,25,-1
105 168 m 1,30,-1
 105 273 l 1,31,-1
 0 273 l 1,32,-1
 0 168 l 1,33,-1
 105 168 l 1,34,-1
 105 168 l 1,30,-1
105 253 m 1,35,-1
 105 357 l 1,36,-1
 0 357 l 1,37,-1
 0 253 l 1,38,-1
 105 253 l 1,39,-1
 105 253 l 1,35,-1
358 337 m 1,40,-1
 358 441 l 1,41,-1
 253 441 l 1,42,-1
 253 337 l 1,43,-1
 358 337 l 1,44,-1
 358 337 l 1,40,-1
274 337 m 1,45,-1
 274 441 l 1,46,-1
 169 441 l 1,47,-1
 169 337 l 1,48,-1
 274 337 l 1,49,-1
 274 337 l 1,45,-1
189 337 m 1,50,-1
 189 441 l 1,51,-1
 85 441 l 1,52,-1
 85 337 l 1,53,-1
 189 337 l 1,54,-1
 189 337 l 1,50,-1
105 337 m 1,55,-1
 105 441 l 1,56,-1
 0 441 l 1,57,-1
 0 337 l 1,58,-1
 105 337 l 1,59,-1
 105 337 l 1,55,-1
105 421 m 1,60,-1
 105 526 l 1,61,-1
 0 526 l 1,62,-1
 0 421 l 1,63,-1
 105 421 l 1,64,-1
 105 421 l 1,60,-1
105 506 m 1,65,-1
 105 610 l 1,66,-1
 0 610 l 1,67,-1
 0 506 l 1,68,-1
 105 506 l 1,69,-1
 105 506 l 1,65,-1
105 590 m 1,70,-1
 105 694 l 1,71,-1
 0 694 l 1,72,-1
 0 590 l 1,73,-1
 105 590 l 1,74,-1
 105 590 l 1,70,-1
189 590 m 1,75,-1
 189 694 l 1,76,-1
 85 694 l 1,77,-1
 85 590 l 1,78,-1
 189 590 l 1,79,-1
 189 590 l 1,75,-1
274 590 m 1,80,-1
 274 694 l 1,81,-1
 169 694 l 1,82,-1
 169 590 l 1,83,-1
 274 590 l 1,84,-1
 274 590 l 1,80,-1
358 590 m 1,85,-1
 358 694 l 1,86,-1
 253 694 l 1,87,-1
 253 590 l 1,88,-1
 358 590 l 1,89,-1
 358 590 l 1,85,-1
442 590 m 1,90,-1
 442 694 l 1,91,-1
 338 694 l 1,92,-1
 338 590 l 1,93,-1
 442 590 l 1,94,-1
 442 590 l 1,90,-1
EndSplineSet
EndChar

StartChar: F
Encoding: 70 70 28
Width: 542
GlyphClass: 1
Flags: W
LayerCount: 2
Fore
SplineSet
105 0 m 1,0,-1
 105 104 l 1,1,-1
 0 104 l 1,2,-1
 0 0 l 1,3,-1
 105 0 l 1,4,-1
 105 0 l 1,0,-1
105 84 m 1,5,-1
 105 188 l 1,6,-1
 0 188 l 1,7,-1
 0 84 l 1,8,-1
 105 84 l 1,9,-1
 105 84 l 1,5,-1
105 168 m 1,10,-1
 105 273 l 1,11,-1
 0 273 l 1,12,-1
 0 168 l 1,13,-1
 105 168 l 1,14,-1
 105 168 l 1,10,-1
105 253 m 1,15,-1
 105 357 l 1,16,-1
 0 357 l 1,17,-1
 0 253 l 1,18,-1
 105 253 l 1,19,-1
 105 253 l 1,15,-1
105 337 m 1,20,-1
 105 441 l 1,21,-1
 0 441 l 1,22,-1
 0 337 l 1,23,-1
 105 337 l 1,24,-1
 105 337 l 1,20,-1
189 337 m 1,25,-1
 189 441 l 1,26,-1
 85 441 l 1,27,-1
 85 337 l 1,28,-1
 189 337 l 1,29,-1
 189 337 l 1,25,-1
274 337 m 1,30,-1
 274 441 l 1,31,-1
 169 441 l 1,32,-1
 169 337 l 1,33,-1
 274 337 l 1,34,-1
 274 337 l 1,30,-1
358 337 m 1,35,-1
 358 441 l 1,36,-1
 253 441 l 1,37,-1
 253 337 l 1,38,-1
 358 337 l 1,39,-1
 358 337 l 1,35,-1
105 421 m 1,40,-1
 105 526 l 1,41,-1
 0 526 l 1,42,-1
 0 421 l 1,43,-1
 105 421 l 1,44,-1
 105 421 l 1,40,-1
105 506 m 1,45,-1
 105 610 l 1,46,-1
 0 610 l 1,47,-1
 0 506 l 1,48,-1
 105 506 l 1,49,-1
 105 506 l 1,45,-1
189 590 m 1,50,-1
 189 694 l 1,51,-1
 85 694 l 1,52,-1
 85 590 l 1,53,-1
 189 590 l 1,54,-1
 189 590 l 1,50,-1
274 590 m 1,55,-1
 274 694 l 1,56,-1
 169 694 l 1,57,-1
 169 590 l 1,58,-1
 274 590 l 1,59,-1
 274 590 l 1,55,-1
442 590 m 1,60,-1
 442 694 l 1,61,-1
 338 694 l 1,62,-1
 338 590 l 1,63,-1
 442 590 l 1,64,-1
 442 590 l 1,60,-1
358 590 m 1,65,-1
 358 694 l 1,66,-1
 253 694 l 1,67,-1
 253 590 l 1,68,-1
 358 590 l 1,69,-1
 358 590 l 1,65,-1
105 590 m 1,70,-1
 105 694 l 1,71,-1
 0 694 l 1,72,-1
 0 590 l 1,73,-1
 105 590 l 1,74,-1
 105 590 l 1,70,-1
EndSplineSet
EndChar

StartChar: G
Encoding: 71 71 29
Width: 542
GlyphClass: 1
Flags: W
LayerCount: 2
Fore
SplineSet
189 0 m 1,0,-1
 189 104 l 1,1,-1
 85 104 l 1,2,-1
 85 0 l 1,3,-1
 189 0 l 1,4,-1
 189 0 l 1,0,-1
274 0 m 1,5,-1
 274 104 l 1,6,-1
 169 104 l 1,7,-1
 169 0 l 1,8,-1
 274 0 l 1,9,-1
 274 0 l 1,5,-1
358 0 m 1,10,-1
 358 104 l 1,11,-1
 253 104 l 1,12,-1
 253 0 l 1,13,-1
 358 0 l 1,14,-1
 358 0 l 1,10,-1
105 84 m 1,15,-1
 105 188 l 1,16,-1
 0 188 l 1,17,-1
 0 84 l 1,18,-1
 105 84 l 1,19,-1
 105 84 l 1,15,-1
105 168 m 1,20,-1
 105 273 l 1,21,-1
 0 273 l 1,22,-1
 0 168 l 1,23,-1
 105 168 l 1,24,-1
 105 168 l 1,20,-1
105 253 m 1,25,-1
 105 357 l 1,26,-1
 0 357 l 1,27,-1
 0 253 l 1,28,-1
 105 253 l 1,29,-1
 105 253 l 1,25,-1
105 337 m 1,30,-1
 105 441 l 1,31,-1
 0 441 l 1,32,-1
 0 337 l 1,33,-1
 105 337 l 1,34,-1
 105 337 l 1,30,-1
105 421 m 1,35,-1
 105 526 l 1,36,-1
 0 526 l 1,37,-1
 0 421 l 1,38,-1
 105 421 l 1,39,-1
 105 421 l 1,35,-1
105 506 m 1,40,-1
 105 610 l 1,41,-1
 0 610 l 1,42,-1
 0 506 l 1,43,-1
 105 506 l 1,44,-1
 105 506 l 1,40,-1
189 590 m 1,45,-1
 189 694 l 1,46,-1
 85 694 l 1,47,-1
 85 590 l 1,48,-1
 189 590 l 1,49,-1
 189 590 l 1,45,-1
274 590 m 1,50,-1
 274 694 l 1,51,-1
 169 694 l 1,52,-1
 169 590 l 1,53,-1
 274 590 l 1,54,-1
 274 590 l 1,50,-1
358 590 m 1,55,-1
 358 694 l 1,56,-1
 253 694 l 1,57,-1
 253 590 l 1,58,-1
 358 590 l 1,59,-1
 358 590 l 1,55,-1
442 506 m 1,60,-1
 442 610 l 1,61,-1
 338 610 l 1,62,-1
 338 506 l 1,63,-1
 442 506 l 1,64,-1
 442 506 l 1,60,-1
442 84 m 1,65,-1
 442 188 l 1,66,-1
 338 188 l 1,67,-1
 338 84 l 1,68,-1
 442 84 l 1,69,-1
 442 84 l 1,65,-1
358 168 m 1,70,-1
 358 273 l 1,71,-1
 253 273 l 1,72,-1
 253 168 l 1,73,-1
 358 168 l 1,74,-1
 358 168 l 1,70,-1
442 168 m 1,75,-1
 442 273 l 1,76,-1
 338 273 l 1,77,-1
 338 168 l 1,78,-1
 442 168 l 1,79,-1
 442 168 l 1,75,-1
EndSplineSet
EndChar

StartChar: H
Encoding: 72 72 30
Width: 542
GlyphClass: 1
Flags: W
LayerCount: 2
Fore
SplineSet
105 0 m 1,0,-1
 105 104 l 1,1,-1
 0 104 l 1,2,-1
 0 0 l 1,3,-1
 105 0 l 1,4,-1
 105 0 l 1,0,-1
105 84 m 1,5,-1
 105 188 l 1,6,-1
 0 188 l 1,7,-1
 0 84 l 1,8,-1
 105 84 l 1,9,-1
 105 84 l 1,5,-1
105 168 m 1,10,-1
 105 273 l 1,11,-1
 0 273 l 1,12,-1
 0 168 l 1,13,-1
 105 168 l 1,14,-1
 105 168 l 1,10,-1
105 253 m 1,15,-1
 105 357 l 1,16,-1
 0 357 l 1,17,-1
 0 253 l 1,18,-1
 105 253 l 1,19,-1
 105 253 l 1,15,-1
105 337 m 1,20,-1
 105 441 l 1,21,-1
 0 441 l 1,22,-1
 0 337 l 1,23,-1
 105 337 l 1,24,-1
 105 337 l 1,20,-1
105 421 m 1,25,-1
 105 526 l 1,26,-1
 0 526 l 1,27,-1
 0 421 l 1,28,-1
 105 421 l 1,29,-1
 105 421 l 1,25,-1
105 506 m 1,30,-1
 105 610 l 1,31,-1
 0 610 l 1,32,-1
 0 506 l 1,33,-1
 105 506 l 1,34,-1
 105 506 l 1,30,-1
105 590 m 1,35,-1
 105 694 l 1,36,-1
 0 694 l 1,37,-1
 0 590 l 1,38,-1
 105 590 l 1,39,-1
 105 590 l 1,35,-1
189 337 m 1,40,-1
 189 441 l 1,41,-1
 85 441 l 1,42,-1
 85 337 l 1,43,-1
 189 337 l 1,44,-1
 189 337 l 1,40,-1
274 337 m 1,45,-1
 274 441 l 1,46,-1
 169 441 l 1,47,-1
 169 337 l 1,48,-1
 274 337 l 1,49,-1
 274 337 l 1,45,-1
358 337 m 1,50,-1
 358 441 l 1,51,-1
 253 441 l 1,52,-1
 253 337 l 1,53,-1
 358 337 l 1,54,-1
 358 337 l 1,50,-1
442 84 m 1,55,-1
 442 188 l 1,56,-1
 338 188 l 1,57,-1
 338 84 l 1,58,-1
 442 84 l 1,59,-1
 442 84 l 1,55,-1
442 168 m 1,60,-1
 442 273 l 1,61,-1
 338 273 l 1,62,-1
 338 168 l 1,63,-1
 442 168 l 1,64,-1
 442 168 l 1,60,-1
442 253 m 1,65,-1
 442 357 l 1,66,-1
 338 357 l 1,67,-1
 338 253 l 1,68,-1
 442 253 l 1,69,-1
 442 253 l 1,65,-1
442 421 m 1,70,-1
 442 526 l 1,71,-1
 338 526 l 1,72,-1
 338 421 l 1,73,-1
 442 421 l 1,74,-1
 442 421 l 1,70,-1
442 506 m 1,75,-1
 442 610 l 1,76,-1
 338 610 l 1,77,-1
 338 506 l 1,78,-1
 442 506 l 1,79,-1
 442 506 l 1,75,-1
442 590 m 1,80,-1
 442 694 l 1,81,-1
 338 694 l 1,82,-1
 338 590 l 1,83,-1
 442 590 l 1,84,-1
 442 590 l 1,80,-1
442 337 m 1,85,-1
 442 441 l 1,86,-1
 338 441 l 1,87,-1
 338 337 l 1,88,-1
 442 337 l 1,89,-1
 442 337 l 1,85,-1
442 0 m 1,90,-1
 442 104 l 1,91,-1
 338 104 l 1,92,-1
 338 0 l 1,93,-1
 442 0 l 1,94,-1
 442 0 l 1,90,-1
EndSplineSet
EndChar

StartChar: I
Encoding: 73 73 31
Width: 374
GlyphClass: 1
Flags: W
LayerCount: 2
Fore
SplineSet
274 84 m 1,0,-1
 274 188 l 1,1,-1
 169 188 l 1,2,-1
 169 84 l 1,3,-1
 274 84 l 1,4,-1
 274 84 l 1,0,-1
274 168 m 1,5,-1
 274 273 l 1,6,-1
 169 273 l 1,7,-1
 169 168 l 1,8,-1
 274 168 l 1,9,-1
 274 168 l 1,5,-1
274 253 m 1,10,-1
 274 357 l 1,11,-1
 169 357 l 1,12,-1
 169 253 l 1,13,-1
 274 253 l 1,14,-1
 274 253 l 1,10,-1
274 337 m 1,15,-1
 274 441 l 1,16,-1
 169 441 l 1,17,-1
 169 337 l 1,18,-1
 274 337 l 1,19,-1
 274 337 l 1,15,-1
274 421 m 1,20,-1
 274 526 l 1,21,-1
 169 526 l 1,22,-1
 169 421 l 1,23,-1
 274 421 l 1,24,-1
 274 421 l 1,20,-1
274 506 m 1,25,-1
 274 610 l 1,26,-1
 169 610 l 1,27,-1
 169 506 l 1,28,-1
 274 506 l 1,29,-1
 274 506 l 1,25,-1
358 590 m 1,30,-1
 358 694 l 1,31,-1
 253 694 l 1,32,-1
 253 590 l 1,33,-1
 358 590 l 1,34,-1
 358 590 l 1,30,-1
274 590 m 1,35,-1
 274 694 l 1,36,-1
 169 694 l 1,37,-1
 169 590 l 1,38,-1
 274 590 l 1,39,-1
 274 590 l 1,35,-1
189 590 m 1,40,-1
 189 694 l 1,41,-1
 85 694 l 1,42,-1
 85 590 l 1,43,-1
 189 590 l 1,44,-1
 189 590 l 1,40,-1
358 0 m 1,45,-1
 358 104 l 1,46,-1
 253 104 l 1,47,-1
 253 0 l 1,48,-1
 358 0 l 1,49,-1
 358 0 l 1,45,-1
189 0 m 1,50,-1
 189 104 l 1,51,-1
 85 104 l 1,52,-1
 85 0 l 1,53,-1
 189 0 l 1,54,-1
 189 0 l 1,50,-1
274 0 m 1,55,-1
 274 104 l 1,56,-1
 169 104 l 1,57,-1
 169 0 l 1,58,-1
 274 0 l 1,59,-1
 274 0 l 1,55,-1
EndSplineSet
EndChar

StartChar: L
Encoding: 76 76 32
Width: 542
GlyphClass: 1
Flags: W
LayerCount: 2
Fore
SplineSet
105 84 m 1,0,-1
 105 188 l 1,1,-1
 0 188 l 1,2,-1
 0 84 l 1,3,-1
 105 84 l 1,4,-1
 105 84 l 1,0,-1
105 168 m 1,5,-1
 105 273 l 1,6,-1
 0 273 l 1,7,-1
 0 168 l 1,8,-1
 105 168 l 1,9,-1
 105 168 l 1,5,-1
105 253 m 1,10,-1
 105 357 l 1,11,-1
 0 357 l 1,12,-1
 0 253 l 1,13,-1
 105 253 l 1,14,-1
 105 253 l 1,10,-1
105 506 m 1,15,-1
 105 610 l 1,16,-1
 0 610 l 1,17,-1
 0 506 l 1,18,-1
 105 506 l 1,19,-1
 105 506 l 1,15,-1
105 590 m 1,20,-1
 105 694 l 1,21,-1
 0 694 l 1,22,-1
 0 590 l 1,23,-1
 105 590 l 1,24,-1
 105 590 l 1,20,-1
105 421 m 1,25,-1
 105 526 l 1,26,-1
 0 526 l 1,27,-1
 0 421 l 1,28,-1
 105 421 l 1,29,-1
 105 421 l 1,25,-1
105 337 m 1,30,-1
 105 441 l 1,31,-1
 0 441 l 1,32,-1
 0 337 l 1,33,-1
 105 337 l 1,34,-1
 105 337 l 1,30,-1
442 0 m 1,35,-1
 442 104 l 1,36,-1
 338 104 l 1,37,-1
 338 0 l 1,38,-1
 442 0 l 1,39,-1
 442 0 l 1,35,-1
358 0 m 1,40,-1
 358 104 l 1,41,-1
 253 104 l 1,42,-1
 253 0 l 1,43,-1
 358 0 l 1,44,-1
 358 0 l 1,40,-1
274 0 m 1,45,-1
 274 104 l 1,46,-1
 169 104 l 1,47,-1
 169 0 l 1,48,-1
 274 0 l 1,49,-1
 274 0 l 1,45,-1
189 0 m 1,50,-1
 189 104 l 1,51,-1
 85 104 l 1,52,-1
 85 0 l 1,53,-1
 189 0 l 1,54,-1
 189 0 l 1,50,-1
105 0 m 1,55,-1
 105 104 l 1,56,-1
 0 104 l 1,57,-1
 0 0 l 1,58,-1
 105 0 l 1,59,-1
 105 0 l 1,55,-1
EndSplineSet
EndChar

StartChar: M
Encoding: 77 77 33
Width: 542
GlyphClass: 1
Flags: W
LayerCount: 2
Fore
SplineSet
442 253 m 1,0,-1
 442 357 l 1,1,-1
 338 357 l 1,2,-1
 338 253 l 1,3,-1
 442 253 l 1,4,-1
 442 253 l 1,0,-1
442 168 m 1,5,-1
 442 273 l 1,6,-1
 338 273 l 1,7,-1
 338 168 l 1,8,-1
 442 168 l 1,9,-1
 442 168 l 1,5,-1
442 337 m 1,10,-1
 442 441 l 1,11,-1
 338 441 l 1,12,-1
 338 337 l 1,13,-1
 442 337 l 1,14,-1
 442 337 l 1,10,-1
442 421 m 1,15,-1
 442 526 l 1,16,-1
 338 526 l 1,17,-1
 338 421 l 1,18,-1
 442 421 l 1,19,-1
 442 421 l 1,15,-1
442 590 m 1,20,-1
 442 694 l 1,21,-1
 338 694 l 1,22,-1
 338 590 l 1,23,-1
 442 590 l 1,24,-1
 442 590 l 1,20,-1
442 84 m 1,25,-1
 442 188 l 1,26,-1
 338 188 l 1,27,-1
 338 84 l 1,28,-1
 442 84 l 1,29,-1
 442 84 l 1,25,-1
442 0 m 1,30,-1
 442 104 l 1,31,-1
 338 104 l 1,32,-1
 338 0 l 1,33,-1
 442 0 l 1,34,-1
 442 0 l 1,30,-1
105 84 m 1,35,-1
 105 188 l 1,36,-1
 0 188 l 1,37,-1
 0 84 l 1,38,-1
 105 84 l 1,39,-1
 105 84 l 1,35,-1
105 168 m 1,40,-1
 105 273 l 1,41,-1
 0 273 l 1,42,-1
 0 168 l 1,43,-1
 105 168 l 1,44,-1
 105 168 l 1,40,-1
105 253 m 1,45,-1
 105 357 l 1,46,-1
 0 357 l 1,47,-1
 0 253 l 1,48,-1
 105 253 l 1,49,-1
 105 253 l 1,45,-1
105 0 m 1,50,-1
 105 104 l 1,51,-1
 0 104 l 1,52,-1
 0 0 l 1,53,-1
 105 0 l 1,54,-1
 105 0 l 1,50,-1
105 337 m 1,55,-1
 105 441 l 1,56,-1
 0 441 l 1,57,-1
 0 337 l 1,58,-1
 105 337 l 1,59,-1
 105 337 l 1,55,-1
105 421 m 1,60,-1
 105 526 l 1,61,-1
 0 526 l 1,62,-1
 0 421 l 1,63,-1
 105 421 l 1,64,-1
 105 421 l 1,60,-1
105 590 m 1,65,-1
 105 694 l 1,66,-1
 0 694 l 1,67,-1
 0 590 l 1,68,-1
 105 590 l 1,69,-1
 105 590 l 1,65,-1
105 506 m 1,70,-1
 105 610 l 1,71,-1
 0 610 l 1,72,-1
 0 506 l 1,73,-1
 105 506 l 1,74,-1
 105 506 l 1,70,-1
189 506 m 1,75,-1
 189 610 l 1,76,-1
 85 610 l 1,77,-1
 85 506 l 1,78,-1
 189 506 l 1,79,-1
 189 506 l 1,75,-1
442 506 m 1,80,-1
 442 610 l 1,81,-1
 338 610 l 1,82,-1
 338 506 l 1,83,-1
 442 506 l 1,84,-1
 442 506 l 1,80,-1
358 506 m 1,85,-1
 358 610 l 1,86,-1
 253 610 l 1,87,-1
 253 506 l 1,88,-1
 358 506 l 1,89,-1
 358 506 l 1,85,-1
274 421 m 1,90,-1
 274 526 l 1,91,-1
 169 526 l 1,92,-1
 169 421 l 1,93,-1
 274 421 l 1,94,-1
 274 421 l 1,90,-1
EndSplineSet
EndChar

StartChar: N
Encoding: 78 78 34
Width: 542
GlyphClass: 1
Flags: W
LayerCount: 2
Fore
SplineSet
105 0 m 1,0,-1
 105 104 l 1,1,-1
 0 104 l 1,2,-1
 0 0 l 1,3,-1
 105 0 l 1,4,-1
 105 0 l 1,0,-1
105 84 m 1,5,-1
 105 188 l 1,6,-1
 0 188 l 1,7,-1
 0 84 l 1,8,-1
 105 84 l 1,9,-1
 105 84 l 1,5,-1
105 168 m 1,10,-1
 105 273 l 1,11,-1
 0 273 l 1,12,-1
 0 168 l 1,13,-1
 105 168 l 1,14,-1
 105 168 l 1,10,-1
105 253 m 1,15,-1
 105 357 l 1,16,-1
 0 357 l 1,17,-1
 0 253 l 1,18,-1
 105 253 l 1,19,-1
 105 253 l 1,15,-1
442 84 m 1,20,-1
 442 188 l 1,21,-1
 338 188 l 1,22,-1
 338 84 l 1,23,-1
 442 84 l 1,24,-1
 442 84 l 1,20,-1
442 168 m 1,25,-1
 442 273 l 1,26,-1
 338 273 l 1,27,-1
 338 168 l 1,28,-1
 442 168 l 1,29,-1
 442 168 l 1,25,-1
442 253 m 1,30,-1
 442 357 l 1,31,-1
 338 357 l 1,32,-1
 338 253 l 1,33,-1
 442 253 l 1,34,-1
 442 253 l 1,30,-1
442 337 m 1,35,-1
 442 441 l 1,36,-1
 338 441 l 1,37,-1
 338 337 l 1,38,-1
 442 337 l 1,39,-1
 442 337 l 1,35,-1
442 421 m 1,40,-1
 442 526 l 1,41,-1
 338 526 l 1,42,-1
 338 421 l 1,43,-1
 442 421 l 1,44,-1
 442 421 l 1,40,-1
442 590 m 1,45,-1
 442 694 l 1,46,-1
 338 694 l 1,47,-1
 338 590 l 1,48,-1
 442 590 l 1,49,-1
 442 590 l 1,45,-1
105 337 m 1,50,-1
 105 441 l 1,51,-1
 0 441 l 1,52,-1
 0 337 l 1,53,-1
 105 337 l 1,54,-1
 105 337 l 1,50,-1
105 421 m 1,55,-1
 105 526 l 1,56,-1
 0 526 l 1,57,-1
 0 421 l 1,58,-1
 105 421 l 1,59,-1
 105 421 l 1,55,-1
105 590 m 1,60,-1
 105 694 l 1,61,-1
 0 694 l 1,62,-1
 0 590 l 1,63,-1
 105 590 l 1,64,-1
 105 590 l 1,60,-1
105 506 m 1,65,-1
 105 610 l 1,66,-1
 0 610 l 1,67,-1
 0 506 l 1,68,-1
 105 506 l 1,69,-1
 105 506 l 1,65,-1
189 421 m 1,70,-1
 189 526 l 1,71,-1
 85 526 l 1,72,-1
 85 421 l 1,73,-1
 189 421 l 1,74,-1
 189 421 l 1,70,-1
274 337 m 1,75,-1
 274 441 l 1,76,-1
 169 441 l 1,77,-1
 169 337 l 1,78,-1
 274 337 l 1,79,-1
 274 337 l 1,75,-1
358 253 m 1,80,-1
 358 357 l 1,81,-1
 253 357 l 1,82,-1
 253 253 l 1,83,-1
 358 253 l 1,84,-1
 358 253 l 1,80,-1
442 506 m 1,85,-1
 442 610 l 1,86,-1
 338 610 l 1,87,-1
 338 506 l 1,88,-1
 442 506 l 1,89,-1
 442 506 l 1,85,-1
442 0 m 1,90,-1
 442 104 l 1,91,-1
 338 104 l 1,92,-1
 338 0 l 1,93,-1
 442 0 l 1,94,-1
 442 0 l 1,90,-1
EndSplineSet
EndChar

StartChar: O
Encoding: 79 79 35
Width: 542
GlyphClass: 1
Flags: W
LayerCount: 2
Fore
SplineSet
105 84 m 1,0,-1
 105 188 l 1,1,-1
 0 188 l 1,2,-1
 0 84 l 1,3,-1
 105 84 l 1,4,-1
 105 84 l 1,0,-1
105 168 m 1,5,-1
 105 273 l 1,6,-1
 0 273 l 1,7,-1
 0 168 l 1,8,-1
 105 168 l 1,9,-1
 105 168 l 1,5,-1
105 253 m 1,10,-1
 105 357 l 1,11,-1
 0 357 l 1,12,-1
 0 253 l 1,13,-1
 105 253 l 1,14,-1
 105 253 l 1,10,-1
105 337 m 1,15,-1
 105 441 l 1,16,-1
 0 441 l 1,17,-1
 0 337 l 1,18,-1
 105 337 l 1,19,-1
 105 337 l 1,15,-1
274 590 m 1,20,-1
 274 694 l 1,21,-1
 169 694 l 1,22,-1
 169 590 l 1,23,-1
 274 590 l 1,24,-1
 274 590 l 1,20,-1
358 590 m 1,25,-1
 358 694 l 1,26,-1
 253 694 l 1,27,-1
 253 590 l 1,28,-1
 358 590 l 1,29,-1
 358 590 l 1,25,-1
105 421 m 1,30,-1
 105 526 l 1,31,-1
 0 526 l 1,32,-1
 0 421 l 1,33,-1
 105 421 l 1,34,-1
 105 421 l 1,30,-1
189 590 m 1,35,-1
 189 694 l 1,36,-1
 85 694 l 1,37,-1
 85 590 l 1,38,-1
 189 590 l 1,39,-1
 189 590 l 1,35,-1
105 506 m 1,40,-1
 105 610 l 1,41,-1
 0 610 l 1,42,-1
 0 506 l 1,43,-1
 105 506 l 1,44,-1
 105 506 l 1,40,-1
442 84 m 1,45,-1
 442 188 l 1,46,-1
 338 188 l 1,47,-1
 338 84 l 1,48,-1
 442 84 l 1,49,-1
 442 84 l 1,45,-1
442 168 m 1,50,-1
 442 273 l 1,51,-1
 338 273 l 1,52,-1
 338 168 l 1,53,-1
 442 168 l 1,54,-1
 442 168 l 1,50,-1
442 253 m 1,55,-1
 442 357 l 1,56,-1
 338 357 l 1,57,-1
 338 253 l 1,58,-1
 442 253 l 1,59,-1
 442 253 l 1,55,-1
442 337 m 1,60,-1
 442 441 l 1,61,-1
 338 441 l 1,62,-1
 338 337 l 1,63,-1
 442 337 l 1,64,-1
 442 337 l 1,60,-1
442 421 m 1,65,-1
 442 526 l 1,66,-1
 338 526 l 1,67,-1
 338 421 l 1,68,-1
 442 421 l 1,69,-1
 442 421 l 1,65,-1
442 506 m 1,70,-1
 442 610 l 1,71,-1
 338 610 l 1,72,-1
 338 506 l 1,73,-1
 442 506 l 1,74,-1
 442 506 l 1,70,-1
358 0 m 1,75,-1
 358 104 l 1,76,-1
 253 104 l 1,77,-1
 253 0 l 1,78,-1
 358 0 l 1,79,-1
 358 0 l 1,75,-1
274 0 m 1,80,-1
 274 104 l 1,81,-1
 169 104 l 1,82,-1
 169 0 l 1,83,-1
 274 0 l 1,84,-1
 274 0 l 1,80,-1
189 0 m 1,85,-1
 189 104 l 1,86,-1
 85 104 l 1,87,-1
 85 0 l 1,88,-1
 189 0 l 1,89,-1
 189 0 l 1,85,-1
EndSplineSet
EndChar

StartChar: P
Encoding: 80 80 36
Width: 542
GlyphClass: 1
Flags: W
LayerCount: 2
Fore
SplineSet
105 0 m 1,0,-1
 105 104 l 1,1,-1
 0 104 l 1,2,-1
 0 0 l 1,3,-1
 105 0 l 1,4,-1
 105 0 l 1,0,-1
105 84 m 1,5,-1
 105 188 l 1,6,-1
 0 188 l 1,7,-1
 0 84 l 1,8,-1
 105 84 l 1,9,-1
 105 84 l 1,5,-1
105 168 m 1,10,-1
 105 273 l 1,11,-1
 0 273 l 1,12,-1
 0 168 l 1,13,-1
 105 168 l 1,14,-1
 105 168 l 1,10,-1
105 253 m 1,15,-1
 105 357 l 1,16,-1
 0 357 l 1,17,-1
 0 253 l 1,18,-1
 105 253 l 1,19,-1
 105 253 l 1,15,-1
105 337 m 1,20,-1
 105 441 l 1,21,-1
 0 441 l 1,22,-1
 0 337 l 1,23,-1
 105 337 l 1,24,-1
 105 337 l 1,20,-1
105 421 m 1,25,-1
 105 526 l 1,26,-1
 0 526 l 1,27,-1
 0 421 l 1,28,-1
 105 421 l 1,29,-1
 105 421 l 1,25,-1
105 506 m 1,30,-1
 105 610 l 1,31,-1
 0 610 l 1,32,-1
 0 506 l 1,33,-1
 105 506 l 1,34,-1
 105 506 l 1,30,-1
189 253 m 1,35,-1
 189 357 l 1,36,-1
 85 357 l 1,37,-1
 85 253 l 1,38,-1
 189 253 l 1,39,-1
 189 253 l 1,35,-1
189 590 m 1,40,-1
 189 694 l 1,41,-1
 85 694 l 1,42,-1
 85 590 l 1,43,-1
 189 590 l 1,44,-1
 189 590 l 1,40,-1
274 590 m 1,45,-1
 274 694 l 1,46,-1
 169 694 l 1,47,-1
 169 590 l 1,48,-1
 274 590 l 1,49,-1
 274 590 l 1,45,-1
274 253 m 1,50,-1
 274 357 l 1,51,-1
 169 357 l 1,52,-1
 169 253 l 1,53,-1
 274 253 l 1,54,-1
 274 253 l 1,50,-1
358 253 m 1,55,-1
 358 357 l 1,56,-1
 253 357 l 1,57,-1
 253 253 l 1,58,-1
 358 253 l 1,59,-1
 358 253 l 1,55,-1
442 337 m 1,60,-1
 442 441 l 1,61,-1
 338 441 l 1,62,-1
 338 337 l 1,63,-1
 442 337 l 1,64,-1
 442 337 l 1,60,-1
442 421 m 1,65,-1
 442 526 l 1,66,-1
 338 526 l 1,67,-1
 338 421 l 1,68,-1
 442 421 l 1,69,-1
 442 421 l 1,65,-1
442 506 m 1,70,-1
 442 610 l 1,71,-1
 338 610 l 1,72,-1
 338 506 l 1,73,-1
 442 506 l 1,74,-1
 442 506 l 1,70,-1
358 590 m 1,75,-1
 358 694 l 1,76,-1
 253 694 l 1,77,-1
 253 590 l 1,78,-1
 358 590 l 1,79,-1
 358 590 l 1,75,-1
105 590 m 1,80,-1
 105 694 l 1,81,-1
 0 694 l 1,82,-1
 0 590 l 1,83,-1
 105 590 l 1,84,-1
 105 590 l 1,80,-1
EndSplineSet
EndChar

StartChar: Q
Encoding: 81 81 37
Width: 542
GlyphClass: 1
Flags: W
LayerCount: 2
Fore
SplineSet
189 0 m 1,0,-1
 189 104 l 1,1,-1
 85 104 l 1,2,-1
 85 0 l 1,3,-1
 189 0 l 1,4,-1
 189 0 l 1,0,-1
105 84 m 1,5,-1
 105 188 l 1,6,-1
 0 188 l 1,7,-1
 0 84 l 1,8,-1
 105 84 l 1,9,-1
 105 84 l 1,5,-1
105 168 m 1,10,-1
 105 273 l 1,11,-1
 0 273 l 1,12,-1
 0 168 l 1,13,-1
 105 168 l 1,14,-1
 105 168 l 1,10,-1
105 253 m 1,15,-1
 105 357 l 1,16,-1
 0 357 l 1,17,-1
 0 253 l 1,18,-1
 105 253 l 1,19,-1
 105 253 l 1,15,-1
105 337 m 1,20,-1
 105 441 l 1,21,-1
 0 441 l 1,22,-1
 0 337 l 1,23,-1
 105 337 l 1,24,-1
 105 337 l 1,20,-1
105 421 m 1,25,-1
 105 526 l 1,26,-1
 0 526 l 1,27,-1
 0 421 l 1,28,-1
 105 421 l 1,29,-1
 105 421 l 1,25,-1
105 506 m 1,30,-1
 105 610 l 1,31,-1
 0 610 l 1,32,-1
 0 506 l 1,33,-1
 105 506 l 1,34,-1
 105 506 l 1,30,-1
189 590 m 1,35,-1
 189 694 l 1,36,-1
 85 694 l 1,37,-1
 85 590 l 1,38,-1
 189 590 l 1,39,-1
 189 590 l 1,35,-1
274 590 m 1,40,-1
 274 694 l 1,41,-1
 169 694 l 1,42,-1
 169 590 l 1,43,-1
 274 590 l 1,44,-1
 274 590 l 1,40,-1
358 590 m 1,45,-1
 358 694 l 1,46,-1
 253 694 l 1,47,-1
 253 590 l 1,48,-1
 358 590 l 1,49,-1
 358 590 l 1,45,-1
358 84 m 1,50,-1
 358 188 l 1,51,-1
 253 188 l 1,52,-1
 253 84 l 1,53,-1
 358 84 l 1,54,-1
 358 84 l 1,50,-1
442 168 m 1,55,-1
 442 273 l 1,56,-1
 338 273 l 1,57,-1
 338 168 l 1,58,-1
 442 168 l 1,59,-1
 442 168 l 1,55,-1
442 253 m 1,60,-1
 442 357 l 1,61,-1
 338 357 l 1,62,-1
 338 253 l 1,63,-1
 442 253 l 1,64,-1
 442 253 l 1,60,-1
442 337 m 1,65,-1
 442 441 l 1,66,-1
 338 441 l 1,67,-1
 338 337 l 1,68,-1
 442 337 l 1,69,-1
 442 337 l 1,65,-1
442 421 m 1,70,-1
 442 526 l 1,71,-1
 338 526 l 1,72,-1
 338 421 l 1,73,-1
 442 421 l 1,74,-1
 442 421 l 1,70,-1
442 506 m 1,75,-1
 442 610 l 1,76,-1
 338 610 l 1,77,-1
 338 506 l 1,78,-1
 442 506 l 1,79,-1
 442 506 l 1,75,-1
274 168 m 1,80,-1
 274 273 l 1,81,-1
 169 273 l 1,82,-1
 169 168 l 1,83,-1
 274 168 l 1,84,-1
 274 168 l 1,80,-1
274 0 m 1,85,-1
 274 104 l 1,86,-1
 169 104 l 1,87,-1
 169 0 l 1,88,-1
 274 0 l 1,89,-1
 274 0 l 1,85,-1
442 0 m 1,90,-1
 442 104 l 1,91,-1
 338 104 l 1,92,-1
 338 0 l 1,93,-1
 442 0 l 1,94,-1
 442 0 l 1,90,-1
EndSplineSet
EndChar

StartChar: R
Encoding: 82 82 38
Width: 542
GlyphClass: 1
Flags: W
LayerCount: 2
Fore
SplineSet
105 0 m 1,0,-1
 105 104 l 1,1,-1
 0 104 l 1,2,-1
 0 0 l 1,3,-1
 105 0 l 1,4,-1
 105 0 l 1,0,-1
442 0 m 1,5,-1
 442 104 l 1,6,-1
 338 104 l 1,7,-1
 338 0 l 1,8,-1
 442 0 l 1,9,-1
 442 0 l 1,5,-1
358 84 m 1,10,-1
 358 188 l 1,11,-1
 253 188 l 1,12,-1
 253 84 l 1,13,-1
 358 84 l 1,14,-1
 358 84 l 1,10,-1
274 168 m 1,15,-1
 274 273 l 1,16,-1
 169 273 l 1,17,-1
 169 168 l 1,18,-1
 274 168 l 1,19,-1
 274 168 l 1,15,-1
274 253 m 1,20,-1
 274 357 l 1,21,-1
 169 357 l 1,22,-1
 169 253 l 1,23,-1
 274 253 l 1,24,-1
 274 253 l 1,20,-1
105 84 m 1,25,-1
 105 188 l 1,26,-1
 0 188 l 1,27,-1
 0 84 l 1,28,-1
 105 84 l 1,29,-1
 105 84 l 1,25,-1
105 168 m 1,30,-1
 105 273 l 1,31,-1
 0 273 l 1,32,-1
 0 168 l 1,33,-1
 105 168 l 1,34,-1
 105 168 l 1,30,-1
105 253 m 1,35,-1
 105 357 l 1,36,-1
 0 357 l 1,37,-1
 0 253 l 1,38,-1
 105 253 l 1,39,-1
 105 253 l 1,35,-1
105 337 m 1,40,-1
 105 441 l 1,41,-1
 0 441 l 1,42,-1
 0 337 l 1,43,-1
 105 337 l 1,44,-1
 105 337 l 1,40,-1
105 421 m 1,45,-1
 105 526 l 1,46,-1
 0 526 l 1,47,-1
 0 421 l 1,48,-1
 105 421 l 1,49,-1
 105 421 l 1,45,-1
105 506 m 1,50,-1
 105 610 l 1,51,-1
 0 610 l 1,52,-1
 0 506 l 1,53,-1
 105 506 l 1,54,-1
 105 506 l 1,50,-1
105 590 m 1,55,-1
 105 694 l 1,56,-1
 0 694 l 1,57,-1
 0 590 l 1,58,-1
 105 590 l 1,59,-1
 105 590 l 1,55,-1
189 253 m 1,60,-1
 189 357 l 1,61,-1
 85 357 l 1,62,-1
 85 253 l 1,63,-1
 189 253 l 1,64,-1
 189 253 l 1,60,-1
189 590 m 1,65,-1
 189 694 l 1,66,-1
 85 694 l 1,67,-1
 85 590 l 1,68,-1
 189 590 l 1,69,-1
 189 590 l 1,65,-1
274 590 m 1,70,-1
 274 694 l 1,71,-1
 169 694 l 1,72,-1
 169 590 l 1,73,-1
 274 590 l 1,74,-1
 274 590 l 1,70,-1
358 253 m 1,75,-1
 358 357 l 1,76,-1
 253 357 l 1,77,-1
 253 253 l 1,78,-1
 358 253 l 1,79,-1
 358 253 l 1,75,-1
442 337 m 1,80,-1
 442 441 l 1,81,-1
 338 441 l 1,82,-1
 338 337 l 1,83,-1
 442 337 l 1,84,-1
 442 337 l 1,80,-1
442 421 m 1,85,-1
 442 526 l 1,86,-1
 338 526 l 1,87,-1
 338 421 l 1,88,-1
 442 421 l 1,89,-1
 442 421 l 1,85,-1
442 506 m 1,90,-1
 442 610 l 1,91,-1
 338 610 l 1,92,-1
 338 506 l 1,93,-1
 442 506 l 1,94,-1
 442 506 l 1,90,-1
358 590 m 1,95,-1
 358 694 l 1,96,-1
 253 694 l 1,97,-1
 253 590 l 1,98,-1
 358 590 l 1,99,-1
 358 590 l 1,95,-1
EndSplineSet
EndChar

StartChar: S
Encoding: 83 83 39
Width: 542
GlyphClass: 1
Flags: W
LayerCount: 2
Fore
SplineSet
189 0 m 1,0,-1
 189 104 l 1,1,-1
 85 104 l 1,2,-1
 85 0 l 1,3,-1
 189 0 l 1,4,-1
 189 0 l 1,0,-1
274 0 m 1,5,-1
 274 104 l 1,6,-1
 169 104 l 1,7,-1
 169 0 l 1,8,-1
 274 0 l 1,9,-1
 274 0 l 1,5,-1
358 0 m 1,10,-1
 358 104 l 1,11,-1
 253 104 l 1,12,-1
 253 0 l 1,13,-1
 358 0 l 1,14,-1
 358 0 l 1,10,-1
105 84 m 1,15,-1
 105 188 l 1,16,-1
 0 188 l 1,17,-1
 0 84 l 1,18,-1
 105 84 l 1,19,-1
 105 84 l 1,15,-1
105 421 m 1,20,-1
 105 526 l 1,21,-1
 0 526 l 1,22,-1
 0 421 l 1,23,-1
 105 421 l 1,24,-1
 105 421 l 1,20,-1
105 506 m 1,25,-1
 105 610 l 1,26,-1
 0 610 l 1,27,-1
 0 506 l 1,28,-1
 105 506 l 1,29,-1
 105 506 l 1,25,-1
189 337 m 1,30,-1
 189 441 l 1,31,-1
 85 441 l 1,32,-1
 85 337 l 1,33,-1
 189 337 l 1,34,-1
 189 337 l 1,30,-1
274 337 m 1,35,-1
 274 441 l 1,36,-1
 169 441 l 1,37,-1
 169 337 l 1,38,-1
 274 337 l 1,39,-1
 274 337 l 1,35,-1
442 84 m 1,40,-1
 442 188 l 1,41,-1
 338 188 l 1,42,-1
 338 84 l 1,43,-1
 442 84 l 1,44,-1
 442 84 l 1,40,-1
442 168 m 1,45,-1
 442 273 l 1,46,-1
 338 273 l 1,47,-1
 338 168 l 1,48,-1
 442 168 l 1,49,-1
 442 168 l 1,45,-1
442 253 m 1,50,-1
 442 357 l 1,51,-1
 338 357 l 1,52,-1
 338 253 l 1,53,-1
 442 253 l 1,54,-1
 442 253 l 1,50,-1
358 337 m 1,55,-1
 358 441 l 1,56,-1
 253 441 l 1,57,-1
 253 337 l 1,58,-1
 358 337 l 1,59,-1
 358 337 l 1,55,-1
189 590 m 1,60,-1
 189 694 l 1,61,-1
 85 694 l 1,62,-1
 85 590 l 1,63,-1
 189 590 l 1,64,-1
 189 590 l 1,60,-1
274 590 m 1,65,-1
 274 694 l 1,66,-1
 169 694 l 1,67,-1
 169 590 l 1,68,-1
 274 590 l 1,69,-1
 274 590 l 1,65,-1
358 590 m 1,70,-1
 358 694 l 1,71,-1
 253 694 l 1,72,-1
 253 590 l 1,73,-1
 358 590 l 1,74,-1
 358 590 l 1,70,-1
442 506 m 1,75,-1
 442 610 l 1,76,-1
 338 610 l 1,77,-1
 338 506 l 1,78,-1
 442 506 l 1,79,-1
 442 506 l 1,75,-1
EndSplineSet
EndChar

StartChar: T
Encoding: 84 84 40
Width: 542
GlyphClass: 1
Flags: W
LayerCount: 2
Fore
SplineSet
189 590 m 1,0,-1
 189 694 l 1,1,-1
 85 694 l 1,2,-1
 85 590 l 1,3,-1
 189 590 l 1,4,-1
 189 590 l 1,0,-1
105 590 m 1,5,-1
 105 694 l 1,6,-1
 0 694 l 1,7,-1
 0 590 l 1,8,-1
 105 590 l 1,9,-1
 105 590 l 1,5,-1
274 84 m 1,10,-1
 274 188 l 1,11,-1
 169 188 l 1,12,-1
 169 84 l 1,13,-1
 274 84 l 1,14,-1
 274 84 l 1,10,-1
274 168 m 1,15,-1
 274 273 l 1,16,-1
 169 273 l 1,17,-1
 169 168 l 1,18,-1
 274 168 l 1,19,-1
 274 168 l 1,15,-1
274 253 m 1,20,-1
 274 357 l 1,21,-1
 169 357 l 1,22,-1
 169 253 l 1,23,-1
 274 253 l 1,24,-1
 274 253 l 1,20,-1
274 337 m 1,25,-1
 274 441 l 1,26,-1
 169 441 l 1,27,-1
 169 337 l 1,28,-1
 274 337 l 1,29,-1
 274 337 l 1,25,-1
274 421 m 1,30,-1
 274 526 l 1,31,-1
 169 526 l 1,32,-1
 169 421 l 1,33,-1
 274 421 l 1,34,-1
 274 421 l 1,30,-1
358 590 m 1,35,-1
 358 694 l 1,36,-1
 253 694 l 1,37,-1
 253 590 l 1,38,-1
 358 590 l 1,39,-1
 358 590 l 1,35,-1
274 506 m 1,40,-1
 274 610 l 1,41,-1
 169 610 l 1,42,-1
 169 506 l 1,43,-1
 274 506 l 1,44,-1
 274 506 l 1,40,-1
442 590 m 1,45,-1
 442 694 l 1,46,-1
 338 694 l 1,47,-1
 338 590 l 1,48,-1
 442 590 l 1,49,-1
 442 590 l 1,45,-1
274 590 m 1,50,-1
 274 694 l 1,51,-1
 169 694 l 1,52,-1
 169 590 l 1,53,-1
 274 590 l 1,54,-1
 274 590 l 1,50,-1
274 0 m 1,55,-1
 274 104 l 1,56,-1
 169 104 l 1,57,-1
 169 0 l 1,58,-1
 274 0 l 1,59,-1
 274 0 l 1,55,-1
EndSplineSet
EndChar

StartChar: U
Encoding: 85 85 41
Width: 542
GlyphClass: 1
Flags: W
LayerCount: 2
Fore
SplineSet
189 0 m 1,0,-1
 189 104 l 1,1,-1
 85 104 l 1,2,-1
 85 0 l 1,3,-1
 189 0 l 1,4,-1
 189 0 l 1,0,-1
274 0 m 1,5,-1
 274 104 l 1,6,-1
 169 104 l 1,7,-1
 169 0 l 1,8,-1
 274 0 l 1,9,-1
 274 0 l 1,5,-1
358 0 m 1,10,-1
 358 104 l 1,11,-1
 253 104 l 1,12,-1
 253 0 l 1,13,-1
 358 0 l 1,14,-1
 358 0 l 1,10,-1
442 168 m 1,15,-1
 442 273 l 1,16,-1
 338 273 l 1,17,-1
 338 168 l 1,18,-1
 442 168 l 1,19,-1
 442 168 l 1,15,-1
442 253 m 1,20,-1
 442 357 l 1,21,-1
 338 357 l 1,22,-1
 338 253 l 1,23,-1
 442 253 l 1,24,-1
 442 253 l 1,20,-1
442 421 m 1,25,-1
 442 526 l 1,26,-1
 338 526 l 1,27,-1
 338 421 l 1,28,-1
 442 421 l 1,29,-1
 442 421 l 1,25,-1
442 506 m 1,30,-1
 442 610 l 1,31,-1
 338 610 l 1,32,-1
 338 506 l 1,33,-1
 442 506 l 1,34,-1
 442 506 l 1,30,-1
442 590 m 1,35,-1
 442 694 l 1,36,-1
 338 694 l 1,37,-1
 338 590 l 1,38,-1
 442 590 l 1,39,-1
 442 590 l 1,35,-1
442 337 m 1,40,-1
 442 441 l 1,41,-1
 338 441 l 1,42,-1
 338 337 l 1,43,-1
 442 337 l 1,44,-1
 442 337 l 1,40,-1
442 84 m 1,45,-1
 442 188 l 1,46,-1
 338 188 l 1,47,-1
 338 84 l 1,48,-1
 442 84 l 1,49,-1
 442 84 l 1,45,-1
105 84 m 1,50,-1
 105 188 l 1,51,-1
 0 188 l 1,52,-1
 0 84 l 1,53,-1
 105 84 l 1,54,-1
 105 84 l 1,50,-1
105 168 m 1,55,-1
 105 273 l 1,56,-1
 0 273 l 1,57,-1
 0 168 l 1,58,-1
 105 168 l 1,59,-1
 105 168 l 1,55,-1
105 253 m 1,60,-1
 105 357 l 1,61,-1
 0 357 l 1,62,-1
 0 253 l 1,63,-1
 105 253 l 1,64,-1
 105 253 l 1,60,-1
105 337 m 1,65,-1
 105 441 l 1,66,-1
 0 441 l 1,67,-1
 0 337 l 1,68,-1
 105 337 l 1,69,-1
 105 337 l 1,65,-1
105 421 m 1,70,-1
 105 526 l 1,71,-1
 0 526 l 1,72,-1
 0 421 l 1,73,-1
 105 421 l 1,74,-1
 105 421 l 1,70,-1
105 506 m 1,75,-1
 105 610 l 1,76,-1
 0 610 l 1,77,-1
 0 506 l 1,78,-1
 105 506 l 1,79,-1
 105 506 l 1,75,-1
105 590 m 1,80,-1
 105 694 l 1,81,-1
 0 694 l 1,82,-1
 0 590 l 1,83,-1
 105 590 l 1,84,-1
 105 590 l 1,80,-1
EndSplineSet
EndChar

StartChar: V
Encoding: 86 86 42
Width: 542
GlyphClass: 1
Flags: W
LayerCount: 2
Fore
SplineSet
105 168 m 1,0,-1
 105 273 l 1,1,-1
 0 273 l 1,2,-1
 0 168 l 1,3,-1
 105 168 l 1,4,-1
 105 168 l 1,0,-1
105 253 m 1,5,-1
 105 357 l 1,6,-1
 0 357 l 1,7,-1
 0 253 l 1,8,-1
 105 253 l 1,9,-1
 105 253 l 1,5,-1
105 337 m 1,10,-1
 105 441 l 1,11,-1
 0 441 l 1,12,-1
 0 337 l 1,13,-1
 105 337 l 1,14,-1
 105 337 l 1,10,-1
105 421 m 1,15,-1
 105 526 l 1,16,-1
 0 526 l 1,17,-1
 0 421 l 1,18,-1
 105 421 l 1,19,-1
 105 421 l 1,15,-1
105 506 m 1,20,-1
 105 610 l 1,21,-1
 0 610 l 1,22,-1
 0 506 l 1,23,-1
 105 506 l 1,24,-1
 105 506 l 1,20,-1
105 590 m 1,25,-1
 105 694 l 1,26,-1
 0 694 l 1,27,-1
 0 590 l 1,28,-1
 105 590 l 1,29,-1
 105 590 l 1,25,-1
442 168 m 1,30,-1
 442 273 l 1,31,-1
 338 273 l 1,32,-1
 338 168 l 1,33,-1
 442 168 l 1,34,-1
 442 168 l 1,30,-1
442 253 m 1,35,-1
 442 357 l 1,36,-1
 338 357 l 1,37,-1
 338 253 l 1,38,-1
 442 253 l 1,39,-1
 442 253 l 1,35,-1
442 337 m 1,40,-1
 442 441 l 1,41,-1
 338 441 l 1,42,-1
 338 337 l 1,43,-1
 442 337 l 1,44,-1
 442 337 l 1,40,-1
442 421 m 1,45,-1
 442 526 l 1,46,-1
 338 526 l 1,47,-1
 338 421 l 1,48,-1
 442 421 l 1,49,-1
 442 421 l 1,45,-1
442 506 m 1,50,-1
 442 610 l 1,51,-1
 338 610 l 1,52,-1
 338 506 l 1,53,-1
 442 506 l 1,54,-1
 442 506 l 1,50,-1
442 590 m 1,55,-1
 442 694 l 1,56,-1
 338 694 l 1,57,-1
 338 590 l 1,58,-1
 442 590 l 1,59,-1
 442 590 l 1,55,-1
189 84 m 1,60,-1
 189 188 l 1,61,-1
 85 188 l 1,62,-1
 85 84 l 1,63,-1
 189 84 l 1,64,-1
 189 84 l 1,60,-1
358 84 m 1,65,-1
 358 188 l 1,66,-1
 253 188 l 1,67,-1
 253 84 l 1,68,-1
 358 84 l 1,69,-1
 358 84 l 1,65,-1
274 0 m 1,70,-1
 274 104 l 1,71,-1
 169 104 l 1,72,-1
 169 0 l 1,73,-1
 274 0 l 1,74,-1
 274 0 l 1,70,-1
EndSplineSet
EndChar

StartChar: Y
Encoding: 89 89 43
Width: 542
GlyphClass: 1
Flags: W
LayerCount: 2
Fore
SplineSet
442 590 m 1,0,-1
 442 694 l 1,1,-1
 338 694 l 1,2,-1
 338 590 l 1,3,-1
 442 590 l 1,4,-1
 442 590 l 1,0,-1
105 590 m 1,5,-1
 105 694 l 1,6,-1
 0 694 l 1,7,-1
 0 590 l 1,8,-1
 105 590 l 1,9,-1
 105 590 l 1,5,-1
105 506 m 1,10,-1
 105 610 l 1,11,-1
 0 610 l 1,12,-1
 0 506 l 1,13,-1
 105 506 l 1,14,-1
 105 506 l 1,10,-1
442 506 m 1,15,-1
 442 610 l 1,16,-1
 338 610 l 1,17,-1
 338 506 l 1,18,-1
 442 506 l 1,19,-1
 442 506 l 1,15,-1
358 421 m 1,20,-1
 358 526 l 1,21,-1
 253 526 l 1,22,-1
 253 421 l 1,23,-1
 358 421 l 1,24,-1
 358 421 l 1,20,-1
189 421 m 1,25,-1
 189 526 l 1,26,-1
 85 526 l 1,27,-1
 85 421 l 1,28,-1
 189 421 l 1,29,-1
 189 421 l 1,25,-1
274 0 m 1,30,-1
 274 104 l 1,31,-1
 169 104 l 1,32,-1
 169 0 l 1,33,-1
 274 0 l 1,34,-1
 274 0 l 1,30,-1
274 84 m 1,35,-1
 274 188 l 1,36,-1
 169 188 l 1,37,-1
 169 84 l 1,38,-1
 274 84 l 1,39,-1
 274 84 l 1,35,-1
274 168 m 1,40,-1
 274 273 l 1,41,-1
 169 273 l 1,42,-1
 169 168 l 1,43,-1
 274 168 l 1,44,-1
 274 168 l 1,40,-1
274 253 m 1,45,-1
 274 357 l 1,46,-1
 169 357 l 1,47,-1
 169 253 l 1,48,-1
 274 253 l 1,49,-1
 274 253 l 1,45,-1
274 337 m 1,50,-1
 274 441 l 1,51,-1
 169 441 l 1,52,-1
 169 337 l 1,53,-1
 274 337 l 1,54,-1
 274 337 l 1,50,-1
EndSplineSet
EndChar

StartChar: a
Encoding: 97 97 44
Width: 542
GlyphClass: 1
Flags: W
LayerCount: 2
Fore
SplineSet
189 421 m 1,0,-1
 189 526 l 1,1,-1
 85 526 l 1,2,-1
 85 421 l 1,3,-1
 189 421 l 1,4,-1
 189 421 l 1,0,-1
274 421 m 1,5,-1
 274 526 l 1,6,-1
 169 526 l 1,7,-1
 169 421 l 1,8,-1
 274 421 l 1,9,-1
 274 421 l 1,5,-1
358 421 m 1,10,-1
 358 526 l 1,11,-1
 253 526 l 1,12,-1
 253 421 l 1,13,-1
 358 421 l 1,14,-1
 358 421 l 1,10,-1
189 253 m 1,15,-1
 189 357 l 1,16,-1
 85 357 l 1,17,-1
 85 253 l 1,18,-1
 189 253 l 1,19,-1
 189 253 l 1,15,-1
274 253 m 1,20,-1
 274 357 l 1,21,-1
 169 357 l 1,22,-1
 169 253 l 1,23,-1
 274 253 l 1,24,-1
 274 253 l 1,20,-1
442 84 m 1,25,-1
 442 188 l 1,26,-1
 338 188 l 1,27,-1
 338 84 l 1,28,-1
 442 84 l 1,29,-1
 442 84 l 1,25,-1
442 168 m 1,30,-1
 442 273 l 1,31,-1
 338 273 l 1,32,-1
 338 168 l 1,33,-1
 442 168 l 1,34,-1
 442 168 l 1,30,-1
442 253 m 1,35,-1
 442 357 l 1,36,-1
 338 357 l 1,37,-1
 338 253 l 1,38,-1
 442 253 l 1,39,-1
 442 253 l 1,35,-1
442 337 m 1,40,-1
 442 441 l 1,41,-1
 338 441 l 1,42,-1
 338 337 l 1,43,-1
 442 337 l 1,44,-1
 442 337 l 1,40,-1
358 253 m 1,45,-1
 358 357 l 1,46,-1
 253 357 l 1,47,-1
 253 253 l 1,48,-1
 358 253 l 1,49,-1
 358 253 l 1,45,-1
358 84 m 1,50,-1
 358 188 l 1,51,-1
 253 188 l 1,52,-1
 253 84 l 1,53,-1
 358 84 l 1,54,-1
 358 84 l 1,50,-1
105 84 m 1,55,-1
 105 188 l 1,56,-1
 0 188 l 1,57,-1
 0 84 l 1,58,-1
 105 84 l 1,59,-1
 105 84 l 1,55,-1
105 168 m 1,60,-1
 105 273 l 1,61,-1
 0 273 l 1,62,-1
 0 168 l 1,63,-1
 105 168 l 1,64,-1
 105 168 l 1,60,-1
442 0 m 1,65,-1
 442 104 l 1,66,-1
 338 104 l 1,67,-1
 338 0 l 1,68,-1
 442 0 l 1,69,-1
 442 0 l 1,65,-1
274 0 m 1,70,-1
 274 104 l 1,71,-1
 169 104 l 1,72,-1
 169 0 l 1,73,-1
 274 0 l 1,74,-1
 274 0 l 1,70,-1
189 0 m 1,75,-1
 189 104 l 1,76,-1
 85 104 l 1,77,-1
 85 0 l 1,78,-1
 189 0 l 1,79,-1
 189 0 l 1,75,-1
EndSplineSet
EndChar

StartChar: b
Encoding: 98 98 45
Width: 542
GlyphClass: 1
Flags: W
LayerCount: 2
Fore
SplineSet
105 0 m 1,0,-1
 105 104 l 1,1,-1
 0 104 l 1,2,-1
 0 0 l 1,3,-1
 105 0 l 1,4,-1
 105 0 l 1,0,-1
105 84 m 1,5,-1
 105 188 l 1,6,-1
 0 188 l 1,7,-1
 0 84 l 1,8,-1
 105 84 l 1,9,-1
 105 84 l 1,5,-1
105 168 m 1,10,-1
 105 273 l 1,11,-1
 0 273 l 1,12,-1
 0 168 l 1,13,-1
 105 168 l 1,14,-1
 105 168 l 1,10,-1
105 253 m 1,15,-1
 105 357 l 1,16,-1
 0 357 l 1,17,-1
 0 253 l 1,18,-1
 105 253 l 1,19,-1
 105 253 l 1,15,-1
105 337 m 1,20,-1
 105 441 l 1,21,-1
 0 441 l 1,22,-1
 0 337 l 1,23,-1
 105 337 l 1,24,-1
 105 337 l 1,20,-1
189 84 m 1,25,-1
 189 188 l 1,26,-1
 85 188 l 1,27,-1
 85 84 l 1,28,-1
 189 84 l 1,29,-1
 189 84 l 1,25,-1
274 0 m 1,30,-1
 274 104 l 1,31,-1
 169 104 l 1,32,-1
 169 0 l 1,33,-1
 274 0 l 1,34,-1
 274 0 l 1,30,-1
358 0 m 1,35,-1
 358 104 l 1,36,-1
 253 104 l 1,37,-1
 253 0 l 1,38,-1
 358 0 l 1,39,-1
 358 0 l 1,35,-1
442 84 m 1,40,-1
 442 188 l 1,41,-1
 338 188 l 1,42,-1
 338 84 l 1,43,-1
 442 84 l 1,44,-1
 442 84 l 1,40,-1
442 168 m 1,45,-1
 442 273 l 1,46,-1
 338 273 l 1,47,-1
 338 168 l 1,48,-1
 442 168 l 1,49,-1
 442 168 l 1,45,-1
442 253 m 1,50,-1
 442 357 l 1,51,-1
 338 357 l 1,52,-1
 338 253 l 1,53,-1
 442 253 l 1,54,-1
 442 253 l 1,50,-1
189 421 m 1,55,-1
 189 526 l 1,56,-1
 85 526 l 1,57,-1
 85 421 l 1,58,-1
 189 421 l 1,59,-1
 189 421 l 1,55,-1
274 421 m 1,60,-1
 274 526 l 1,61,-1
 169 526 l 1,62,-1
 169 421 l 1,63,-1
 274 421 l 1,64,-1
 274 421 l 1,60,-1
358 421 m 1,65,-1
 358 526 l 1,66,-1
 253 526 l 1,67,-1
 253 421 l 1,68,-1
 358 421 l 1,69,-1
 358 421 l 1,65,-1
442 337 m 1,70,-1
 442 441 l 1,71,-1
 338 441 l 1,72,-1
 338 337 l 1,73,-1
 442 337 l 1,74,-1
 442 337 l 1,70,-1
105 421 m 1,75,-1
 105 526 l 1,76,-1
 0 526 l 1,77,-1
 0 421 l 1,78,-1
 105 421 l 1,79,-1
 105 421 l 1,75,-1
105 506 m 1,80,-1
 105 610 l 1,81,-1
 0 610 l 1,82,-1
 0 506 l 1,83,-1
 105 506 l 1,84,-1
 105 506 l 1,80,-1
105 590 m 1,85,-1
 105 694 l 1,86,-1
 0 694 l 1,87,-1
 0 590 l 1,88,-1
 105 590 l 1,89,-1
 105 590 l 1,85,-1
EndSplineSet
EndChar

StartChar: c
Encoding: 99 99 46
Width: 542
GlyphClass: 1
Flags: W
LayerCount: 2
Fore
SplineSet
105 84 m 1,0,-1
 105 188 l 1,1,-1
 0 188 l 1,2,-1
 0 84 l 1,3,-1
 105 84 l 1,4,-1
 105 84 l 1,0,-1
105 168 m 1,5,-1
 105 273 l 1,6,-1
 0 273 l 1,7,-1
 0 168 l 1,8,-1
 105 168 l 1,9,-1
 105 168 l 1,5,-1
105 253 m 1,10,-1
 105 357 l 1,11,-1
 0 357 l 1,12,-1
 0 253 l 1,13,-1
 105 253 l 1,14,-1
 105 253 l 1,10,-1
105 337 m 1,15,-1
 105 441 l 1,16,-1
 0 441 l 1,17,-1
 0 337 l 1,18,-1
 105 337 l 1,19,-1
 105 337 l 1,15,-1
189 421 m 1,20,-1
 189 526 l 1,21,-1
 85 526 l 1,22,-1
 85 421 l 1,23,-1
 189 421 l 1,24,-1
 189 421 l 1,20,-1
274 421 m 1,25,-1
 274 526 l 1,26,-1
 169 526 l 1,27,-1
 169 421 l 1,28,-1
 274 421 l 1,29,-1
 274 421 l 1,25,-1
358 421 m 1,30,-1
 358 526 l 1,31,-1
 253 526 l 1,32,-1
 253 421 l 1,33,-1
 358 421 l 1,34,-1
 358 421 l 1,30,-1
442 337 m 1,35,-1
 442 441 l 1,36,-1
 338 441 l 1,37,-1
 338 337 l 1,38,-1
 442 337 l 1,39,-1
 442 337 l 1,35,-1
442 84 m 1,40,-1
 442 188 l 1,41,-1
 338 188 l 1,42,-1
 338 84 l 1,43,-1
 442 84 l 1,44,-1
 442 84 l 1,40,-1
358 0 m 1,45,-1
 358 104 l 1,46,-1
 253 104 l 1,47,-1
 253 0 l 1,48,-1
 358 0 l 1,49,-1
 358 0 l 1,45,-1
274 0 m 1,50,-1
 274 104 l 1,51,-1
 169 104 l 1,52,-1
 169 0 l 1,53,-1
 274 0 l 1,54,-1
 274 0 l 1,50,-1
189 0 m 1,55,-1
 189 104 l 1,56,-1
 85 104 l 1,57,-1
 85 0 l 1,58,-1
 189 0 l 1,59,-1
 189 0 l 1,55,-1
EndSplineSet
EndChar

StartChar: d
Encoding: 100 100 47
Width: 542
GlyphClass: 1
Flags: W
LayerCount: 2
Fore
SplineSet
105 84 m 1,0,-1
 105 188 l 1,1,-1
 0 188 l 1,2,-1
 0 84 l 1,3,-1
 105 84 l 1,4,-1
 105 84 l 1,0,-1
105 168 m 1,5,-1
 105 273 l 1,6,-1
 0 273 l 1,7,-1
 0 168 l 1,8,-1
 105 168 l 1,9,-1
 105 168 l 1,5,-1
105 253 m 1,10,-1
 105 357 l 1,11,-1
 0 357 l 1,12,-1
 0 253 l 1,13,-1
 105 253 l 1,14,-1
 105 253 l 1,10,-1
105 337 m 1,15,-1
 105 441 l 1,16,-1
 0 441 l 1,17,-1
 0 337 l 1,18,-1
 105 337 l 1,19,-1
 105 337 l 1,15,-1
442 168 m 1,20,-1
 442 273 l 1,21,-1
 338 273 l 1,22,-1
 338 168 l 1,23,-1
 442 168 l 1,24,-1
 442 168 l 1,20,-1
358 84 m 1,25,-1
 358 188 l 1,26,-1
 253 188 l 1,27,-1
 253 84 l 1,28,-1
 358 84 l 1,29,-1
 358 84 l 1,25,-1
442 84 m 1,30,-1
 442 188 l 1,31,-1
 338 188 l 1,32,-1
 338 84 l 1,33,-1
 442 84 l 1,34,-1
 442 84 l 1,30,-1
358 421 m 1,35,-1
 358 526 l 1,36,-1
 253 526 l 1,37,-1
 253 421 l 1,38,-1
 358 421 l 1,39,-1
 358 421 l 1,35,-1
274 421 m 1,40,-1
 274 526 l 1,41,-1
 169 526 l 1,42,-1
 169 421 l 1,43,-1
 274 421 l 1,44,-1
 274 421 l 1,40,-1
189 421 m 1,45,-1
 189 526 l 1,46,-1
 85 526 l 1,47,-1
 85 421 l 1,48,-1
 189 421 l 1,49,-1
 189 421 l 1,45,-1
442 421 m 1,50,-1
 442 526 l 1,51,-1
 338 526 l 1,52,-1
 338 421 l 1,53,-1
 442 421 l 1,54,-1
 442 421 l 1,50,-1
442 506 m 1,55,-1
 442 610 l 1,56,-1
 338 610 l 1,57,-1
 338 506 l 1,58,-1
 442 506 l 1,59,-1
 442 506 l 1,55,-1
442 590 m 1,60,-1
 442 694 l 1,61,-1
 338 694 l 1,62,-1
 338 590 l 1,63,-1
 442 590 l 1,64,-1
 442 590 l 1,60,-1
442 253 m 1,65,-1
 442 357 l 1,66,-1
 338 357 l 1,67,-1
 338 253 l 1,68,-1
 442 253 l 1,69,-1
 442 253 l 1,65,-1
442 337 m 1,70,-1
 442 441 l 1,71,-1
 338 441 l 1,72,-1
 338 337 l 1,73,-1
 442 337 l 1,74,-1
 442 337 l 1,70,-1
442 0 m 1,75,-1
 442 104 l 1,76,-1
 338 104 l 1,77,-1
 338 0 l 1,78,-1
 442 0 l 1,79,-1
 442 0 l 1,75,-1
274 0 m 1,80,-1
 274 104 l 1,81,-1
 169 104 l 1,82,-1
 169 0 l 1,83,-1
 274 0 l 1,84,-1
 274 0 l 1,80,-1
189 0 m 1,85,-1
 189 104 l 1,86,-1
 85 104 l 1,87,-1
 85 0 l 1,88,-1
 189 0 l 1,89,-1
 189 0 l 1,85,-1
EndSplineSet
EndChar

StartChar: e
Encoding: 101 101 48
Width: 542
GlyphClass: 1
Flags: W
LayerCount: 2
Fore
SplineSet
274 421 m 1,0,-1
 274 526 l 1,1,-1
 169 526 l 1,2,-1
 169 421 l 1,3,-1
 274 421 l 1,4,-1
 274 421 l 1,0,-1
189 253 m 1,5,-1
 189 357 l 1,6,-1
 85 357 l 1,7,-1
 85 253 l 1,8,-1
 189 253 l 1,9,-1
 189 253 l 1,5,-1
274 253 m 1,10,-1
 274 357 l 1,11,-1
 169 357 l 1,12,-1
 169 253 l 1,13,-1
 274 253 l 1,14,-1
 274 253 l 1,10,-1
358 253 m 1,15,-1
 358 357 l 1,16,-1
 253 357 l 1,17,-1
 253 253 l 1,18,-1
 358 253 l 1,19,-1
 358 253 l 1,15,-1
442 253 m 1,20,-1
 442 357 l 1,21,-1
 338 357 l 1,22,-1
 338 253 l 1,23,-1
 442 253 l 1,24,-1
 442 253 l 1,20,-1
442 337 m 1,25,-1
 442 441 l 1,26,-1
 338 441 l 1,27,-1
 338 337 l 1,28,-1
 442 337 l 1,29,-1
 442 337 l 1,25,-1
358 421 m 1,30,-1
 358 526 l 1,31,-1
 253 526 l 1,32,-1
 253 421 l 1,33,-1
 358 421 l 1,34,-1
 358 421 l 1,30,-1
189 421 m 1,35,-1
 189 526 l 1,36,-1
 85 526 l 1,37,-1
 85 421 l 1,38,-1
 189 421 l 1,39,-1
 189 421 l 1,35,-1
105 168 m 1,40,-1
 105 273 l 1,41,-1
 0 273 l 1,42,-1
 0 168 l 1,43,-1
 105 168 l 1,44,-1
 105 168 l 1,40,-1
105 253 m 1,45,-1
 105 357 l 1,46,-1
 0 357 l 1,47,-1
 0 253 l 1,48,-1
 105 253 l 1,49,-1
 105 253 l 1,45,-1
105 337 m 1,50,-1
 105 441 l 1,51,-1
 0 441 l 1,52,-1
 0 337 l 1,53,-1
 105 337 l 1,54,-1
 105 337 l 1,50,-1
105 84 m 1,55,-1
 105 188 l 1,56,-1
 0 188 l 1,57,-1
 0 84 l 1,58,-1
 105 84 l 1,59,-1
 105 84 l 1,55,-1
442 0 m 1,60,-1
 442 104 l 1,61,-1
 338 104 l 1,62,-1
 338 0 l 1,63,-1
 442 0 l 1,64,-1
 442 0 l 1,60,-1
358 0 m 1,65,-1
 358 104 l 1,66,-1
 253 104 l 1,67,-1
 253 0 l 1,68,-1
 358 0 l 1,69,-1
 358 0 l 1,65,-1
274 0 m 1,70,-1
 274 104 l 1,71,-1
 169 104 l 1,72,-1
 169 0 l 1,73,-1
 274 0 l 1,74,-1
 274 0 l 1,70,-1
189 0 m 1,75,-1
 189 104 l 1,76,-1
 85 104 l 1,77,-1
 85 0 l 1,78,-1
 189 0 l 1,79,-1
 189 0 l 1,75,-1
EndSplineSet
EndChar

StartChar: f
Encoding: 102 102 49
Width: 458
GlyphClass: 1
Flags: W
LayerCount: 2
Fore
SplineSet
189 421 m 1,0,-1
 189 526 l 1,1,-1
 85 526 l 1,2,-1
 85 421 l 1,3,-1
 189 421 l 1,4,-1
 189 421 l 1,0,-1
274 253 m 1,5,-1
 274 357 l 1,6,-1
 169 357 l 1,7,-1
 169 253 l 1,8,-1
 274 253 l 1,9,-1
 274 253 l 1,5,-1
274 337 m 1,10,-1
 274 441 l 1,11,-1
 169 441 l 1,12,-1
 169 337 l 1,13,-1
 274 337 l 1,14,-1
 274 337 l 1,10,-1
274 421 m 1,15,-1
 274 526 l 1,16,-1
 169 526 l 1,17,-1
 169 421 l 1,18,-1
 274 421 l 1,19,-1
 274 421 l 1,15,-1
274 506 m 1,20,-1
 274 610 l 1,21,-1
 169 610 l 1,22,-1
 169 506 l 1,23,-1
 274 506 l 1,24,-1
 274 506 l 1,20,-1
358 590 m 1,25,-1
 358 694 l 1,26,-1
 253 694 l 1,27,-1
 253 590 l 1,28,-1
 358 590 l 1,29,-1
 358 590 l 1,25,-1
442 590 m 1,30,-1
 442 694 l 1,31,-1
 338 694 l 1,32,-1
 338 590 l 1,33,-1
 442 590 l 1,34,-1
 442 590 l 1,30,-1
358 421 m 1,35,-1
 358 526 l 1,36,-1
 253 526 l 1,37,-1
 253 421 l 1,38,-1
 358 421 l 1,39,-1
 358 421 l 1,35,-1
442 421 m 1,40,-1
 442 526 l 1,41,-1
 338 526 l 1,42,-1
 338 421 l 1,43,-1
 442 421 l 1,44,-1
 442 421 l 1,40,-1
274 168 m 1,45,-1
 274 273 l 1,46,-1
 169 273 l 1,47,-1
 169 168 l 1,48,-1
 274 168 l 1,49,-1
 274 168 l 1,45,-1
274 84 m 1,50,-1
 274 188 l 1,51,-1
 169 188 l 1,52,-1
 169 84 l 1,53,-1
 274 84 l 1,54,-1
 274 84 l 1,50,-1
274 0 m 1,55,-1
 274 104 l 1,56,-1
 169 104 l 1,57,-1
 169 0 l 1,58,-1
 274 0 l 1,59,-1
 274 0 l 1,55,-1
EndSplineSet
EndChar

StartChar: g
Encoding: 103 103 50
Width: 542
GlyphClass: 1
Flags: W
LayerCount: 2
Fore
SplineSet
105 84 m 1,0,-1
 105 188 l 1,1,-1
 0 188 l 1,2,-1
 0 84 l 1,3,-1
 105 84 l 1,4,-1
 105 84 l 1,0,-1
105 168 m 1,5,-1
 105 273 l 1,6,-1
 0 273 l 1,7,-1
 0 168 l 1,8,-1
 105 168 l 1,9,-1
 105 168 l 1,5,-1
105 253 m 1,10,-1
 105 357 l 1,11,-1
 0 357 l 1,12,-1
 0 253 l 1,13,-1
 105 253 l 1,14,-1
 105 253 l 1,10,-1
105 337 m 1,15,-1
 105 441 l 1,16,-1
 0 441 l 1,17,-1
 0 337 l 1,18,-1
 105 337 l 1,19,-1
 105 337 l 1,15,-1
189 421 m 1,20,-1
 189 526 l 1,21,-1
 85 526 l 1,22,-1
 85 421 l 1,23,-1
 189 421 l 1,24,-1
 189 421 l 1,20,-1
274 421 m 1,25,-1
 274 526 l 1,26,-1
 169 526 l 1,27,-1
 169 421 l 1,28,-1
 274 421 l 1,29,-1
 274 421 l 1,25,-1
189 -169 m 1,30,-1
 189 -65 l 1,31,-1
 85 -65 l 1,32,-1
 85 -169 l 1,33,-1
 189 -169 l 1,34,-1
 189 -169 l 1,30,-1
274 -169 m 1,35,-1
 274 -65 l 1,36,-1
 169 -65 l 1,37,-1
 169 -169 l 1,38,-1
 274 -169 l 1,39,-1
 274 -169 l 1,35,-1
358 -169 m 1,40,-1
 358 -65 l 1,41,-1
 253 -65 l 1,42,-1
 253 -169 l 1,43,-1
 358 -169 l 1,44,-1
 358 -169 l 1,40,-1
442 -85 m 1,45,-1
 442 20 l 1,46,-1
 338 20 l 1,47,-1
 338 -85 l 1,48,-1
 442 -85 l 1,49,-1
 442 -85 l 1,45,-1
442 84 m 1,50,-1
 442 188 l 1,51,-1
 338 188 l 1,52,-1
 338 84 l 1,53,-1
 442 84 l 1,54,-1
 442 84 l 1,50,-1
442 168 m 1,55,-1
 442 273 l 1,56,-1
 338 273 l 1,57,-1
 338 168 l 1,58,-1
 442 168 l 1,59,-1
 442 168 l 1,55,-1
442 253 m 1,60,-1
 442 357 l 1,61,-1
 338 357 l 1,62,-1
 338 253 l 1,63,-1
 442 253 l 1,64,-1
 442 253 l 1,60,-1
358 337 m 1,65,-1
 358 441 l 1,66,-1
 253 441 l 1,67,-1
 253 337 l 1,68,-1
 358 337 l 1,69,-1
 358 337 l 1,65,-1
442 337 m 1,70,-1
 442 441 l 1,71,-1
 338 441 l 1,72,-1
 338 337 l 1,73,-1
 442 337 l 1,74,-1
 442 337 l 1,70,-1
442 421 m 1,75,-1
 442 526 l 1,76,-1
 338 526 l 1,77,-1
 338 421 l 1,78,-1
 442 421 l 1,79,-1
 442 421 l 1,75,-1
189 0 m 1,80,-1
 189 104 l 1,81,-1
 85 104 l 1,82,-1
 85 0 l 1,83,-1
 189 0 l 1,84,-1
 189 0 l 1,80,-1
274 0 m 1,85,-1
 274 104 l 1,86,-1
 169 104 l 1,87,-1
 169 0 l 1,88,-1
 274 0 l 1,89,-1
 274 0 l 1,85,-1
358 0 m 1,90,-1
 358 104 l 1,91,-1
 253 104 l 1,92,-1
 253 0 l 1,93,-1
 358 0 l 1,94,-1
 358 0 l 1,90,-1
442 0 m 1,95,-1
 442 104 l 1,96,-1
 338 104 l 1,97,-1
 338 0 l 1,98,-1
 442 0 l 1,99,-1
 442 0 l 1,95,-1
EndSplineSet
EndChar

StartChar: h
Encoding: 104 104 51
Width: 542
GlyphClass: 1
Flags: W
LayerCount: 2
Fore
SplineSet
105 0 m 1,0,-1
 105 104 l 1,1,-1
 0 104 l 1,2,-1
 0 0 l 1,3,-1
 105 0 l 1,4,-1
 105 0 l 1,0,-1
105 84 m 1,5,-1
 105 188 l 1,6,-1
 0 188 l 1,7,-1
 0 84 l 1,8,-1
 105 84 l 1,9,-1
 105 84 l 1,5,-1
105 168 m 1,10,-1
 105 273 l 1,11,-1
 0 273 l 1,12,-1
 0 168 l 1,13,-1
 105 168 l 1,14,-1
 105 168 l 1,10,-1
105 253 m 1,15,-1
 105 357 l 1,16,-1
 0 357 l 1,17,-1
 0 253 l 1,18,-1
 105 253 l 1,19,-1
 105 253 l 1,15,-1
105 337 m 1,20,-1
 105 441 l 1,21,-1
 0 441 l 1,22,-1
 0 337 l 1,23,-1
 105 337 l 1,24,-1
 105 337 l 1,20,-1
105 421 m 1,25,-1
 105 526 l 1,26,-1
 0 526 l 1,27,-1
 0 421 l 1,28,-1
 105 421 l 1,29,-1
 105 421 l 1,25,-1
105 506 m 1,30,-1
 105 610 l 1,31,-1
 0 610 l 1,32,-1
 0 506 l 1,33,-1
 105 506 l 1,34,-1
 105 506 l 1,30,-1
105 590 m 1,35,-1
 105 694 l 1,36,-1
 0 694 l 1,37,-1
 0 590 l 1,38,-1
 105 590 l 1,39,-1
 105 590 l 1,35,-1
358 421 m 1,40,-1
 358 526 l 1,41,-1
 253 526 l 1,42,-1
 253 421 l 1,43,-1
 358 421 l 1,44,-1
 358 421 l 1,40,-1
274 421 m 1,45,-1
 274 526 l 1,46,-1
 169 526 l 1,47,-1
 169 421 l 1,48,-1
 274 421 l 1,49,-1
 274 421 l 1,45,-1
442 0 m 1,50,-1
 442 104 l 1,51,-1
 338 104 l 1,52,-1
 338 0 l 1,53,-1
 442 0 l 1,54,-1
 442 0 l 1,50,-1
442 84 m 1,55,-1
 442 188 l 1,56,-1
 338 188 l 1,57,-1
 338 84 l 1,58,-1
 442 84 l 1,59,-1
 442 84 l 1,55,-1
442 168 m 1,60,-1
 442 273 l 1,61,-1
 338 273 l 1,62,-1
 338 168 l 1,63,-1
 442 168 l 1,64,-1
 442 168 l 1,60,-1
442 253 m 1,65,-1
 442 357 l 1,66,-1
 338 357 l 1,67,-1
 338 253 l 1,68,-1
 442 253 l 1,69,-1
 442 253 l 1,65,-1
442 337 m 1,70,-1
 442 441 l 1,71,-1
 338 441 l 1,72,-1
 338 337 l 1,73,-1
 442 337 l 1,74,-1
 442 337 l 1,70,-1
189 337 m 1,75,-1
 189 441 l 1,76,-1
 85 441 l 1,77,-1
 85 337 l 1,78,-1
 189 337 l 1,79,-1
 189 337 l 1,75,-1
EndSplineSet
EndChar

StartChar: i
Encoding: 105 105 52
Width: 374
GlyphClass: 1
Flags: W
LayerCount: 2
Fore
SplineSet
274 84 m 1,0,-1
 274 188 l 1,1,-1
 169 188 l 1,2,-1
 169 84 l 1,3,-1
 274 84 l 1,4,-1
 274 84 l 1,0,-1
274 168 m 1,5,-1
 274 273 l 1,6,-1
 169 273 l 1,7,-1
 169 168 l 1,8,-1
 274 168 l 1,9,-1
 274 168 l 1,5,-1
274 253 m 1,10,-1
 274 357 l 1,11,-1
 169 357 l 1,12,-1
 169 253 l 1,13,-1
 274 253 l 1,14,-1
 274 253 l 1,10,-1
274 337 m 1,15,-1
 274 441 l 1,16,-1
 169 441 l 1,17,-1
 169 337 l 1,18,-1
 274 337 l 1,19,-1
 274 337 l 1,15,-1
189 421 m 1,20,-1
 189 526 l 1,21,-1
 85 526 l 1,22,-1
 85 421 l 1,23,-1
 189 421 l 1,24,-1
 189 421 l 1,20,-1
274 421 m 1,25,-1
 274 526 l 1,26,-1
 169 526 l 1,27,-1
 169 421 l 1,28,-1
 274 421 l 1,29,-1
 274 421 l 1,25,-1
274 590 m 1,30,-1
 274 694 l 1,31,-1
 169 694 l 1,32,-1
 169 590 l 1,33,-1
 274 590 l 1,34,-1
 274 590 l 1,30,-1
189 0 m 1,35,-1
 189 104 l 1,36,-1
 85 104 l 1,37,-1
 85 0 l 1,38,-1
 189 0 l 1,39,-1
 189 0 l 1,35,-1
274 0 m 1,40,-1
 274 104 l 1,41,-1
 169 104 l 1,42,-1
 169 0 l 1,43,-1
 274 0 l 1,44,-1
 274 0 l 1,40,-1
358 0 m 1,45,-1
 358 104 l 1,46,-1
 253 104 l 1,47,-1
 253 0 l 1,48,-1
 358 0 l 1,49,-1
 358 0 l 1,45,-1
EndSplineSet
EndChar

StartChar: k
Encoding: 107 107 53
Width: 542
GlyphClass: 1
Flags: W
LayerCount: 2
Fore
SplineSet
105 0 m 1,0,-1
 105 104 l 1,1,-1
 0 104 l 1,2,-1
 0 0 l 1,3,-1
 105 0 l 1,4,-1
 105 0 l 1,0,-1
105 84 m 1,5,-1
 105 188 l 1,6,-1
 0 188 l 1,7,-1
 0 84 l 1,8,-1
 105 84 l 1,9,-1
 105 84 l 1,5,-1
105 168 m 1,10,-1
 105 273 l 1,11,-1
 0 273 l 1,12,-1
 0 168 l 1,13,-1
 105 168 l 1,14,-1
 105 168 l 1,10,-1
105 253 m 1,15,-1
 105 357 l 1,16,-1
 0 357 l 1,17,-1
 0 253 l 1,18,-1
 105 253 l 1,19,-1
 105 253 l 1,15,-1
105 337 m 1,20,-1
 105 441 l 1,21,-1
 0 441 l 1,22,-1
 0 337 l 1,23,-1
 105 337 l 1,24,-1
 105 337 l 1,20,-1
105 421 m 1,25,-1
 105 526 l 1,26,-1
 0 526 l 1,27,-1
 0 421 l 1,28,-1
 105 421 l 1,29,-1
 105 421 l 1,25,-1
105 506 m 1,30,-1
 105 610 l 1,31,-1
 0 610 l 1,32,-1
 0 506 l 1,33,-1
 105 506 l 1,34,-1
 105 506 l 1,30,-1
442 0 m 1,35,-1
 442 104 l 1,36,-1
 338 104 l 1,37,-1
 338 0 l 1,38,-1
 442 0 l 1,39,-1
 442 0 l 1,35,-1
358 84 m 1,40,-1
 358 188 l 1,41,-1
 253 188 l 1,42,-1
 253 84 l 1,43,-1
 358 84 l 1,44,-1
 358 84 l 1,40,-1
189 253 m 1,45,-1
 189 357 l 1,46,-1
 85 357 l 1,47,-1
 85 253 l 1,48,-1
 189 253 l 1,49,-1
 189 253 l 1,45,-1
274 168 m 1,50,-1
 274 273 l 1,51,-1
 169 273 l 1,52,-1
 169 168 l 1,53,-1
 274 168 l 1,54,-1
 274 168 l 1,50,-1
358 421 m 1,55,-1
 358 526 l 1,56,-1
 253 526 l 1,57,-1
 253 421 l 1,58,-1
 358 421 l 1,59,-1
 358 421 l 1,55,-1
274 337 m 1,60,-1
 274 441 l 1,61,-1
 169 441 l 1,62,-1
 169 337 l 1,63,-1
 274 337 l 1,64,-1
 274 337 l 1,60,-1
EndSplineSet
EndChar

StartChar: l
Encoding: 108 108 54
Width: 374
GlyphClass: 1
Flags: W
LayerCount: 2
Fore
SplineSet
189 590 m 1,0,-1
 189 694 l 1,1,-1
 85 694 l 1,2,-1
 85 590 l 1,3,-1
 189 590 l 1,4,-1
 189 590 l 1,0,-1
274 84 m 1,5,-1
 274 188 l 1,6,-1
 169 188 l 1,7,-1
 169 84 l 1,8,-1
 274 84 l 1,9,-1
 274 84 l 1,5,-1
274 253 m 1,10,-1
 274 357 l 1,11,-1
 169 357 l 1,12,-1
 169 253 l 1,13,-1
 274 253 l 1,14,-1
 274 253 l 1,10,-1
274 421 m 1,15,-1
 274 526 l 1,16,-1
 169 526 l 1,17,-1
 169 421 l 1,18,-1
 274 421 l 1,19,-1
 274 421 l 1,15,-1
274 590 m 1,20,-1
 274 694 l 1,21,-1
 169 694 l 1,22,-1
 169 590 l 1,23,-1
 274 590 l 1,24,-1
 274 590 l 1,20,-1
274 506 m 1,25,-1
 274 610 l 1,26,-1
 169 610 l 1,27,-1
 169 506 l 1,28,-1
 274 506 l 1,29,-1
 274 506 l 1,25,-1
274 337 m 1,30,-1
 274 441 l 1,31,-1
 169 441 l 1,32,-1
 169 337 l 1,33,-1
 274 337 l 1,34,-1
 274 337 l 1,30,-1
274 168 m 1,35,-1
 274 273 l 1,36,-1
 169 273 l 1,37,-1
 169 168 l 1,38,-1
 274 168 l 1,39,-1
 274 168 l 1,35,-1
358 0 m 1,40,-1
 358 104 l 1,41,-1
 253 104 l 1,42,-1
 253 0 l 1,43,-1
 358 0 l 1,44,-1
 358 0 l 1,40,-1
274 0 m 1,45,-1
 274 104 l 1,46,-1
 169 104 l 1,47,-1
 169 0 l 1,48,-1
 274 0 l 1,49,-1
 274 0 l 1,45,-1
189 0 m 1,50,-1
 189 104 l 1,51,-1
 85 104 l 1,52,-1
 85 0 l 1,53,-1
 189 0 l 1,54,-1
 189 0 l 1,50,-1
EndSplineSet
EndChar

StartChar: m
Encoding: 109 109 55
Width: 542
GlyphClass: 1
Flags: W
LayerCount: 2
Fore
SplineSet
105 0 m 1,0,-1
 105 104 l 1,1,-1
 0 104 l 1,2,-1
 0 0 l 1,3,-1
 105 0 l 1,4,-1
 105 0 l 1,0,-1
105 84 m 1,5,-1
 105 188 l 1,6,-1
 0 188 l 1,7,-1
 0 84 l 1,8,-1
 105 84 l 1,9,-1
 105 84 l 1,5,-1
105 168 m 1,10,-1
 105 273 l 1,11,-1
 0 273 l 1,12,-1
 0 168 l 1,13,-1
 105 168 l 1,14,-1
 105 168 l 1,10,-1
105 253 m 1,15,-1
 105 357 l 1,16,-1
 0 357 l 1,17,-1
 0 253 l 1,18,-1
 105 253 l 1,19,-1
 105 253 l 1,15,-1
105 337 m 1,20,-1
 105 441 l 1,21,-1
 0 441 l 1,22,-1
 0 337 l 1,23,-1
 105 337 l 1,24,-1
 105 337 l 1,20,-1
105 421 m 1,25,-1
 105 526 l 1,26,-1
 0 526 l 1,27,-1
 0 421 l 1,28,-1
 105 421 l 1,29,-1
 105 421 l 1,25,-1
274 0 m 1,30,-1
 274 104 l 1,31,-1
 169 104 l 1,32,-1
 169 0 l 1,33,-1
 274 0 l 1,34,-1
 274 0 l 1,30,-1
442 0 m 1,35,-1
 442 104 l 1,36,-1
 338 104 l 1,37,-1
 338 0 l 1,38,-1
 442 0 l 1,39,-1
 442 0 l 1,35,-1
274 84 m 1,40,-1
 274 188 l 1,41,-1
 169 188 l 1,42,-1
 169 84 l 1,43,-1
 274 84 l 1,44,-1
 274 84 l 1,40,-1
442 84 m 1,45,-1
 442 188 l 1,46,-1
 338 188 l 1,47,-1
 338 84 l 1,48,-1
 442 84 l 1,49,-1
 442 84 l 1,45,-1
442 168 m 1,50,-1
 442 273 l 1,51,-1
 338 273 l 1,52,-1
 338 168 l 1,53,-1
 442 168 l 1,54,-1
 442 168 l 1,50,-1
442 253 m 1,55,-1
 442 357 l 1,56,-1
 338 357 l 1,57,-1
 338 253 l 1,58,-1
 442 253 l 1,59,-1
 442 253 l 1,55,-1
274 168 m 1,60,-1
 274 273 l 1,61,-1
 169 273 l 1,62,-1
 169 168 l 1,63,-1
 274 168 l 1,64,-1
 274 168 l 1,60,-1
274 253 m 1,65,-1
 274 357 l 1,66,-1
 169 357 l 1,67,-1
 169 253 l 1,68,-1
 274 253 l 1,69,-1
 274 253 l 1,65,-1
442 337 m 1,70,-1
 442 441 l 1,71,-1
 338 441 l 1,72,-1
 338 337 l 1,73,-1
 442 337 l 1,74,-1
 442 337 l 1,70,-1
274 337 m 1,75,-1
 274 441 l 1,76,-1
 169 441 l 1,77,-1
 169 337 l 1,78,-1
 274 337 l 1,79,-1
 274 337 l 1,75,-1
358 421 m 1,80,-1
 358 526 l 1,81,-1
 253 526 l 1,82,-1
 253 421 l 1,83,-1
 358 421 l 1,84,-1
 358 421 l 1,80,-1
189 421 m 1,85,-1
 189 526 l 1,86,-1
 85 526 l 1,87,-1
 85 421 l 1,88,-1
 189 421 l 1,89,-1
 189 421 l 1,85,-1
EndSplineSet
EndChar

StartChar: n
Encoding: 110 110 56
Width: 542
GlyphClass: 1
Flags: W
LayerCount: 2
Fore
SplineSet
105 0 m 1,0,-1
 105 104 l 1,1,-1
 0 104 l 1,2,-1
 0 0 l 1,3,-1
 105 0 l 1,4,-1
 105 0 l 1,0,-1
189 337 m 1,5,-1
 189 441 l 1,6,-1
 85 441 l 1,7,-1
 85 337 l 1,8,-1
 189 337 l 1,9,-1
 189 337 l 1,5,-1
274 421 m 1,10,-1
 274 526 l 1,11,-1
 169 526 l 1,12,-1
 169 421 l 1,13,-1
 274 421 l 1,14,-1
 274 421 l 1,10,-1
358 421 m 1,15,-1
 358 526 l 1,16,-1
 253 526 l 1,17,-1
 253 421 l 1,18,-1
 358 421 l 1,19,-1
 358 421 l 1,15,-1
442 0 m 1,20,-1
 442 104 l 1,21,-1
 338 104 l 1,22,-1
 338 0 l 1,23,-1
 442 0 l 1,24,-1
 442 0 l 1,20,-1
442 84 m 1,25,-1
 442 188 l 1,26,-1
 338 188 l 1,27,-1
 338 84 l 1,28,-1
 442 84 l 1,29,-1
 442 84 l 1,25,-1
442 168 m 1,30,-1
 442 273 l 1,31,-1
 338 273 l 1,32,-1
 338 168 l 1,33,-1
 442 168 l 1,34,-1
 442 168 l 1,30,-1
442 253 m 1,35,-1
 442 357 l 1,36,-1
 338 357 l 1,37,-1
 338 253 l 1,38,-1
 442 253 l 1,39,-1
 442 253 l 1,35,-1
442 337 m 1,40,-1
 442 441 l 1,41,-1
 338 441 l 1,42,-1
 338 337 l 1,43,-1
 442 337 l 1,44,-1
 442 337 l 1,40,-1
105 84 m 1,45,-1
 105 188 l 1,46,-1
 0 188 l 1,47,-1
 0 84 l 1,48,-1
 105 84 l 1,49,-1
 105 84 l 1,45,-1
105 168 m 1,50,-1
 105 273 l 1,51,-1
 0 273 l 1,52,-1
 0 168 l 1,53,-1
 105 168 l 1,54,-1
 105 168 l 1,50,-1
105 253 m 1,55,-1
 105 357 l 1,56,-1
 0 357 l 1,57,-1
 0 253 l 1,58,-1
 105 253 l 1,59,-1
 105 253 l 1,55,-1
105 337 m 1,60,-1
 105 441 l 1,61,-1
 0 441 l 1,62,-1
 0 337 l 1,63,-1
 105 337 l 1,64,-1
 105 337 l 1,60,-1
105 421 m 1,65,-1
 105 526 l 1,66,-1
 0 526 l 1,67,-1
 0 421 l 1,68,-1
 105 421 l 1,69,-1
 105 421 l 1,65,-1
EndSplineSet
EndChar

StartChar: o
Encoding: 111 111 57
Width: 542
GlyphClass: 1
Flags: W
LayerCount: 2
Fore
SplineSet
105 84 m 1,0,-1
 105 188 l 1,1,-1
 0 188 l 1,2,-1
 0 84 l 1,3,-1
 105 84 l 1,4,-1
 105 84 l 1,0,-1
105 168 m 1,5,-1
 105 273 l 1,6,-1
 0 273 l 1,7,-1
 0 168 l 1,8,-1
 105 168 l 1,9,-1
 105 168 l 1,5,-1
105 253 m 1,10,-1
 105 357 l 1,11,-1
 0 357 l 1,12,-1
 0 253 l 1,13,-1
 105 253 l 1,14,-1
 105 253 l 1,10,-1
105 337 m 1,15,-1
 105 441 l 1,16,-1
 0 441 l 1,17,-1
 0 337 l 1,18,-1
 105 337 l 1,19,-1
 105 337 l 1,15,-1
274 421 m 1,20,-1
 274 526 l 1,21,-1
 169 526 l 1,22,-1
 169 421 l 1,23,-1
 274 421 l 1,24,-1
 274 421 l 1,20,-1
189 421 m 1,25,-1
 189 526 l 1,26,-1
 85 526 l 1,27,-1
 85 421 l 1,28,-1
 189 421 l 1,29,-1
 189 421 l 1,25,-1
358 421 m 1,30,-1
 358 526 l 1,31,-1
 253 526 l 1,32,-1
 253 421 l 1,33,-1
 358 421 l 1,34,-1
 358 421 l 1,30,-1
442 84 m 1,35,-1
 442 188 l 1,36,-1
 338 188 l 1,37,-1
 338 84 l 1,38,-1
 442 84 l 1,39,-1
 442 84 l 1,35,-1
442 337 m 1,40,-1
 442 441 l 1,41,-1
 338 441 l 1,42,-1
 338 337 l 1,43,-1
 442 337 l 1,44,-1
 442 337 l 1,40,-1
442 253 m 1,45,-1
 442 357 l 1,46,-1
 338 357 l 1,47,-1
 338 253 l 1,48,-1
 442 253 l 1,49,-1
 442 253 l 1,45,-1
442 168 m 1,50,-1
 442 273 l 1,51,-1
 338 273 l 1,52,-1
 338 168 l 1,53,-1
 442 168 l 1,54,-1
 442 168 l 1,50,-1
274 0 m 1,55,-1
 274 104 l 1,56,-1
 169 104 l 1,57,-1
 169 0 l 1,58,-1
 274 0 l 1,59,-1
 274 0 l 1,55,-1
358 0 m 1,60,-1
 358 104 l 1,61,-1
 253 104 l 1,62,-1
 253 0 l 1,63,-1
 358 0 l 1,64,-1
 358 0 l 1,60,-1
189 0 m 1,65,-1
 189 104 l 1,66,-1
 85 104 l 1,67,-1
 85 0 l 1,68,-1
 189 0 l 1,69,-1
 189 0 l 1,65,-1
EndSplineSet
EndChar

StartChar: p
Encoding: 112 112 58
Width: 542
GlyphClass: 1
Flags: W
LayerCount: 2
Fore
SplineSet
105 -85 m 1,0,-1
 105 20 l 1,1,-1
 0 20 l 1,2,-1
 0 -85 l 1,3,-1
 105 -85 l 1,4,-1
 105 -85 l 1,0,-1
105 -169 m 1,5,-1
 105 -65 l 1,6,-1
 0 -65 l 1,7,-1
 0 -169 l 1,8,-1
 105 -169 l 1,9,-1
 105 -169 l 1,5,-1
358 0 m 1,10,-1
 358 104 l 1,11,-1
 253 104 l 1,12,-1
 253 0 l 1,13,-1
 358 0 l 1,14,-1
 358 0 l 1,10,-1
274 0 m 1,15,-1
 274 104 l 1,16,-1
 169 104 l 1,17,-1
 169 0 l 1,18,-1
 274 0 l 1,19,-1
 274 0 l 1,15,-1
189 0 m 1,20,-1
 189 104 l 1,21,-1
 85 104 l 1,22,-1
 85 0 l 1,23,-1
 189 0 l 1,24,-1
 189 0 l 1,20,-1
105 0 m 1,25,-1
 105 104 l 1,26,-1
 0 104 l 1,27,-1
 0 0 l 1,28,-1
 105 0 l 1,29,-1
 105 0 l 1,25,-1
105 84 m 1,30,-1
 105 188 l 1,31,-1
 0 188 l 1,32,-1
 0 84 l 1,33,-1
 105 84 l 1,34,-1
 105 84 l 1,30,-1
105 168 m 1,35,-1
 105 273 l 1,36,-1
 0 273 l 1,37,-1
 0 168 l 1,38,-1
 105 168 l 1,39,-1
 105 168 l 1,35,-1
442 84 m 1,40,-1
 442 188 l 1,41,-1
 338 188 l 1,42,-1
 338 84 l 1,43,-1
 442 84 l 1,44,-1
 442 84 l 1,40,-1
442 168 m 1,45,-1
 442 273 l 1,46,-1
 338 273 l 1,47,-1
 338 168 l 1,48,-1
 442 168 l 1,49,-1
 442 168 l 1,45,-1
442 253 m 1,50,-1
 442 357 l 1,51,-1
 338 357 l 1,52,-1
 338 253 l 1,53,-1
 442 253 l 1,54,-1
 442 253 l 1,50,-1
442 337 m 1,55,-1
 442 441 l 1,56,-1
 338 441 l 1,57,-1
 338 337 l 1,58,-1
 442 337 l 1,59,-1
 442 337 l 1,55,-1
189 337 m 1,60,-1
 189 441 l 1,61,-1
 85 441 l 1,62,-1
 85 337 l 1,63,-1
 189 337 l 1,64,-1
 189 337 l 1,60,-1
274 421 m 1,65,-1
 274 526 l 1,66,-1
 169 526 l 1,67,-1
 169 421 l 1,68,-1
 274 421 l 1,69,-1
 274 421 l 1,65,-1
358 421 m 1,70,-1
 358 526 l 1,71,-1
 253 526 l 1,72,-1
 253 421 l 1,73,-1
 358 421 l 1,74,-1
 358 421 l 1,70,-1
105 253 m 1,75,-1
 105 357 l 1,76,-1
 0 357 l 1,77,-1
 0 253 l 1,78,-1
 105 253 l 1,79,-1
 105 253 l 1,75,-1
105 337 m 1,80,-1
 105 441 l 1,81,-1
 0 441 l 1,82,-1
 0 337 l 1,83,-1
 105 337 l 1,84,-1
 105 337 l 1,80,-1
105 421 m 1,85,-1
 105 526 l 1,86,-1
 0 526 l 1,87,-1
 0 421 l 1,88,-1
 105 421 l 1,89,-1
 105 421 l 1,85,-1
EndSplineSet
EndChar

StartChar: r
Encoding: 114 114 59
Width: 542
GlyphClass: 1
Flags: W
LayerCount: 2
Fore
SplineSet
105 0 m 1,0,-1
 105 104 l 1,1,-1
 0 104 l 1,2,-1
 0 0 l 1,3,-1
 105 0 l 1,4,-1
 105 0 l 1,0,-1
105 84 m 1,5,-1
 105 188 l 1,6,-1
 0 188 l 1,7,-1
 0 84 l 1,8,-1
 105 84 l 1,9,-1
 105 84 l 1,5,-1
105 168 m 1,10,-1
 105 273 l 1,11,-1
 0 273 l 1,12,-1
 0 168 l 1,13,-1
 105 168 l 1,14,-1
 105 168 l 1,10,-1
105 253 m 1,15,-1
 105 357 l 1,16,-1
 0 357 l 1,17,-1
 0 253 l 1,18,-1
 105 253 l 1,19,-1
 105 253 l 1,15,-1
105 337 m 1,20,-1
 105 441 l 1,21,-1
 0 441 l 1,22,-1
 0 337 l 1,23,-1
 105 337 l 1,24,-1
 105 337 l 1,20,-1
105 421 m 1,25,-1
 105 526 l 1,26,-1
 0 526 l 1,27,-1
 0 421 l 1,28,-1
 105 421 l 1,29,-1
 105 421 l 1,25,-1
274 421 m 1,30,-1
 274 526 l 1,31,-1
 169 526 l 1,32,-1
 169 421 l 1,33,-1
 274 421 l 1,34,-1
 274 421 l 1,30,-1
358 421 m 1,35,-1
 358 526 l 1,36,-1
 253 526 l 1,37,-1
 253 421 l 1,38,-1
 358 421 l 1,39,-1
 358 421 l 1,35,-1
442 337 m 1,40,-1
 442 441 l 1,41,-1
 338 441 l 1,42,-1
 338 337 l 1,43,-1
 442 337 l 1,44,-1
 442 337 l 1,40,-1
189 337 m 1,45,-1
 189 441 l 1,46,-1
 85 441 l 1,47,-1
 85 337 l 1,48,-1
 189 337 l 1,49,-1
 189 337 l 1,45,-1
EndSplineSet
EndChar

StartChar: s
Encoding: 115 115 60
Width: 542
GlyphClass: 1
Flags: W
LayerCount: 2
Fore
SplineSet
105 337 m 1,0,-1
 105 441 l 1,1,-1
 0 441 l 1,2,-1
 0 337 l 1,3,-1
 105 337 l 1,4,-1
 105 337 l 1,0,-1
274 421 m 1,5,-1
 274 526 l 1,6,-1
 169 526 l 1,7,-1
 169 421 l 1,8,-1
 274 421 l 1,9,-1
 274 421 l 1,5,-1
358 421 m 1,10,-1
 358 526 l 1,11,-1
 253 526 l 1,12,-1
 253 421 l 1,13,-1
 358 421 l 1,14,-1
 358 421 l 1,10,-1
189 421 m 1,15,-1
 189 526 l 1,16,-1
 85 526 l 1,17,-1
 85 421 l 1,18,-1
 189 421 l 1,19,-1
 189 421 l 1,15,-1
189 253 m 1,20,-1
 189 357 l 1,21,-1
 85 357 l 1,22,-1
 85 253 l 1,23,-1
 189 253 l 1,24,-1
 189 253 l 1,20,-1
274 253 m 1,25,-1
 274 357 l 1,26,-1
 169 357 l 1,27,-1
 169 253 l 1,28,-1
 274 253 l 1,29,-1
 274 253 l 1,25,-1
358 253 m 1,30,-1
 358 357 l 1,31,-1
 253 357 l 1,32,-1
 253 253 l 1,33,-1
 358 253 l 1,34,-1
 358 253 l 1,30,-1
442 168 m 1,35,-1
 442 273 l 1,36,-1
 338 273 l 1,37,-1
 338 168 l 1,38,-1
 442 168 l 1,39,-1
 442 168 l 1,35,-1
442 84 m 1,40,-1
 442 188 l 1,41,-1
 338 188 l 1,42,-1
 338 84 l 1,43,-1
 442 84 l 1,44,-1
 442 84 l 1,40,-1
358 0 m 1,45,-1
 358 104 l 1,46,-1
 253 104 l 1,47,-1
 253 0 l 1,48,-1
 358 0 l 1,49,-1
 358 0 l 1,45,-1
274 0 m 1,50,-1
 274 104 l 1,51,-1
 169 104 l 1,52,-1
 169 0 l 1,53,-1
 274 0 l 1,54,-1
 274 0 l 1,50,-1
189 0 m 1,55,-1
 189 104 l 1,56,-1
 85 104 l 1,57,-1
 85 0 l 1,58,-1
 189 0 l 1,59,-1
 189 0 l 1,55,-1
105 84 m 1,60,-1
 105 188 l 1,61,-1
 0 188 l 1,62,-1
 0 84 l 1,63,-1
 105 84 l 1,64,-1
 105 84 l 1,60,-1
EndSplineSet
EndChar

StartChar: t
Encoding: 116 116 61
Width: 542
GlyphClass: 1
Flags: W
LayerCount: 2
Fore
SplineSet
105 421 m 1,0,-1
 105 526 l 1,1,-1
 0 526 l 1,2,-1
 0 421 l 1,3,-1
 105 421 l 1,4,-1
 105 421 l 1,0,-1
189 84 m 1,5,-1
 189 188 l 1,6,-1
 85 188 l 1,7,-1
 85 84 l 1,8,-1
 189 84 l 1,9,-1
 189 84 l 1,5,-1
189 168 m 1,10,-1
 189 273 l 1,11,-1
 85 273 l 1,12,-1
 85 168 l 1,13,-1
 189 168 l 1,14,-1
 189 168 l 1,10,-1
189 253 m 1,15,-1
 189 357 l 1,16,-1
 85 357 l 1,17,-1
 85 253 l 1,18,-1
 189 253 l 1,19,-1
 189 253 l 1,15,-1
189 337 m 1,20,-1
 189 441 l 1,21,-1
 85 441 l 1,22,-1
 85 337 l 1,23,-1
 189 337 l 1,24,-1
 189 337 l 1,20,-1
189 421 m 1,25,-1
 189 526 l 1,26,-1
 85 526 l 1,27,-1
 85 421 l 1,28,-1
 189 421 l 1,29,-1
 189 421 l 1,25,-1
189 506 m 1,30,-1
 189 610 l 1,31,-1
 85 610 l 1,32,-1
 85 506 l 1,33,-1
 189 506 l 1,34,-1
 189 506 l 1,30,-1
189 590 m 1,35,-1
 189 694 l 1,36,-1
 85 694 l 1,37,-1
 85 590 l 1,38,-1
 189 590 l 1,39,-1
 189 590 l 1,35,-1
274 421 m 1,40,-1
 274 526 l 1,41,-1
 169 526 l 1,42,-1
 169 421 l 1,43,-1
 274 421 l 1,44,-1
 274 421 l 1,40,-1
358 421 m 1,45,-1
 358 526 l 1,46,-1
 253 526 l 1,47,-1
 253 421 l 1,48,-1
 358 421 l 1,49,-1
 358 421 l 1,45,-1
442 84 m 1,50,-1
 442 188 l 1,51,-1
 338 188 l 1,52,-1
 338 84 l 1,53,-1
 442 84 l 1,54,-1
 442 84 l 1,50,-1
274 0 m 1,55,-1
 274 104 l 1,56,-1
 169 104 l 1,57,-1
 169 0 l 1,58,-1
 274 0 l 1,59,-1
 274 0 l 1,55,-1
358 0 m 1,60,-1
 358 104 l 1,61,-1
 253 104 l 1,62,-1
 253 0 l 1,63,-1
 358 0 l 1,64,-1
 358 0 l 1,60,-1
EndSplineSet
EndChar

StartChar: u
Encoding: 117 117 62
Width: 542
GlyphClass: 1
Flags: W
LayerCount: 2
Fore
SplineSet
105 84 m 1,0,-1
 105 188 l 1,1,-1
 0 188 l 1,2,-1
 0 84 l 1,3,-1
 105 84 l 1,4,-1
 105 84 l 1,0,-1
105 168 m 1,5,-1
 105 273 l 1,6,-1
 0 273 l 1,7,-1
 0 168 l 1,8,-1
 105 168 l 1,9,-1
 105 168 l 1,5,-1
105 253 m 1,10,-1
 105 357 l 1,11,-1
 0 357 l 1,12,-1
 0 253 l 1,13,-1
 105 253 l 1,14,-1
 105 253 l 1,10,-1
105 337 m 1,15,-1
 105 441 l 1,16,-1
 0 441 l 1,17,-1
 0 337 l 1,18,-1
 105 337 l 1,19,-1
 105 337 l 1,15,-1
105 421 m 1,20,-1
 105 526 l 1,21,-1
 0 526 l 1,22,-1
 0 421 l 1,23,-1
 105 421 l 1,24,-1
 105 421 l 1,20,-1
189 0 m 1,25,-1
 189 104 l 1,26,-1
 85 104 l 1,27,-1
 85 0 l 1,28,-1
 189 0 l 1,29,-1
 189 0 l 1,25,-1
274 0 m 1,30,-1
 274 104 l 1,31,-1
 169 104 l 1,32,-1
 169 0 l 1,33,-1
 274 0 l 1,34,-1
 274 0 l 1,30,-1
442 0 m 1,35,-1
 442 104 l 1,36,-1
 338 104 l 1,37,-1
 338 0 l 1,38,-1
 442 0 l 1,39,-1
 442 0 l 1,35,-1
358 84 m 1,40,-1
 358 188 l 1,41,-1
 253 188 l 1,42,-1
 253 84 l 1,43,-1
 358 84 l 1,44,-1
 358 84 l 1,40,-1
442 84 m 1,45,-1
 442 188 l 1,46,-1
 338 188 l 1,47,-1
 338 84 l 1,48,-1
 442 84 l 1,49,-1
 442 84 l 1,45,-1
442 168 m 1,50,-1
 442 273 l 1,51,-1
 338 273 l 1,52,-1
 338 168 l 1,53,-1
 442 168 l 1,54,-1
 442 168 l 1,50,-1
442 253 m 1,55,-1
 442 357 l 1,56,-1
 338 357 l 1,57,-1
 338 253 l 1,58,-1
 442 253 l 1,59,-1
 442 253 l 1,55,-1
442 337 m 1,60,-1
 442 441 l 1,61,-1
 338 441 l 1,62,-1
 338 337 l 1,63,-1
 442 337 l 1,64,-1
 442 337 l 1,60,-1
442 421 m 1,65,-1
 442 526 l 1,66,-1
 338 526 l 1,67,-1
 338 421 l 1,68,-1
 442 421 l 1,69,-1
 442 421 l 1,65,-1
EndSplineSet
EndChar

StartChar: v
Encoding: 118 118 63
Width: 542
GlyphClass: 1
Flags: W
LayerCount: 2
Fore
SplineSet
274 0 m 1,0,-1
 274 104 l 1,1,-1
 169 104 l 1,2,-1
 169 0 l 1,3,-1
 274 0 l 1,4,-1
 274 0 l 1,0,-1
189 84 m 1,5,-1
 189 188 l 1,6,-1
 85 188 l 1,7,-1
 85 84 l 1,8,-1
 189 84 l 1,9,-1
 189 84 l 1,5,-1
358 84 m 1,10,-1
 358 188 l 1,11,-1
 253 188 l 1,12,-1
 253 84 l 1,13,-1
 358 84 l 1,14,-1
 358 84 l 1,10,-1
442 168 m 1,15,-1
 442 273 l 1,16,-1
 338 273 l 1,17,-1
 338 168 l 1,18,-1
 442 168 l 1,19,-1
 442 168 l 1,15,-1
442 253 m 1,20,-1
 442 357 l 1,21,-1
 338 357 l 1,22,-1
 338 253 l 1,23,-1
 442 253 l 1,24,-1
 442 253 l 1,20,-1
442 337 m 1,25,-1
 442 441 l 1,26,-1
 338 441 l 1,27,-1
 338 337 l 1,28,-1
 442 337 l 1,29,-1
 442 337 l 1,25,-1
442 421 m 1,30,-1
 442 526 l 1,31,-1
 338 526 l 1,32,-1
 338 421 l 1,33,-1
 442 421 l 1,34,-1
 442 421 l 1,30,-1
105 168 m 1,35,-1
 105 273 l 1,36,-1
 0 273 l 1,37,-1
 0 168 l 1,38,-1
 105 168 l 1,39,-1
 105 168 l 1,35,-1
105 253 m 1,40,-1
 105 357 l 1,41,-1
 0 357 l 1,42,-1
 0 253 l 1,43,-1
 105 253 l 1,44,-1
 105 253 l 1,40,-1
105 337 m 1,45,-1
 105 441 l 1,46,-1
 0 441 l 1,47,-1
 0 337 l 1,48,-1
 105 337 l 1,49,-1
 105 337 l 1,45,-1
105 421 m 1,50,-1
 105 526 l 1,51,-1
 0 526 l 1,52,-1
 0 421 l 1,53,-1
 105 421 l 1,54,-1
 105 421 l 1,50,-1
EndSplineSet
EndChar

StartChar: w
Encoding: 119 119 64
Width: 542
GlyphClass: 1
Flags: W
LayerCount: 2
Fore
SplineSet
105 84 m 1,0,-1
 105 188 l 1,1,-1
 0 188 l 1,2,-1
 0 84 l 1,3,-1
 105 84 l 1,4,-1
 105 84 l 1,0,-1
105 168 m 1,5,-1
 105 273 l 1,6,-1
 0 273 l 1,7,-1
 0 168 l 1,8,-1
 105 168 l 1,9,-1
 105 168 l 1,5,-1
105 253 m 1,10,-1
 105 357 l 1,11,-1
 0 357 l 1,12,-1
 0 253 l 1,13,-1
 105 253 l 1,14,-1
 105 253 l 1,10,-1
105 337 m 1,15,-1
 105 441 l 1,16,-1
 0 441 l 1,17,-1
 0 337 l 1,18,-1
 105 337 l 1,19,-1
 105 337 l 1,15,-1
105 421 m 1,20,-1
 105 526 l 1,21,-1
 0 526 l 1,22,-1
 0 421 l 1,23,-1
 105 421 l 1,24,-1
 105 421 l 1,20,-1
274 84 m 1,25,-1
 274 188 l 1,26,-1
 169 188 l 1,27,-1
 169 84 l 1,28,-1
 274 84 l 1,29,-1
 274 84 l 1,25,-1
274 168 m 1,30,-1
 274 273 l 1,31,-1
 169 273 l 1,32,-1
 169 168 l 1,33,-1
 274 168 l 1,34,-1
 274 168 l 1,30,-1
274 253 m 1,35,-1
 274 357 l 1,36,-1
 169 357 l 1,37,-1
 169 253 l 1,38,-1
 274 253 l 1,39,-1
 274 253 l 1,35,-1
189 0 m 1,40,-1
 189 104 l 1,41,-1
 85 104 l 1,42,-1
 85 0 l 1,43,-1
 189 0 l 1,44,-1
 189 0 l 1,40,-1
358 0 m 1,45,-1
 358 104 l 1,46,-1
 253 104 l 1,47,-1
 253 0 l 1,48,-1
 358 0 l 1,49,-1
 358 0 l 1,45,-1
442 84 m 1,50,-1
 442 188 l 1,51,-1
 338 188 l 1,52,-1
 338 84 l 1,53,-1
 442 84 l 1,54,-1
 442 84 l 1,50,-1
442 168 m 1,55,-1
 442 273 l 1,56,-1
 338 273 l 1,57,-1
 338 168 l 1,58,-1
 442 168 l 1,59,-1
 442 168 l 1,55,-1
442 253 m 1,60,-1
 442 357 l 1,61,-1
 338 357 l 1,62,-1
 338 253 l 1,63,-1
 442 253 l 1,64,-1
 442 253 l 1,60,-1
442 337 m 1,65,-1
 442 441 l 1,66,-1
 338 441 l 1,67,-1
 338 337 l 1,68,-1
 442 337 l 1,69,-1
 442 337 l 1,65,-1
442 421 m 1,70,-1
 442 526 l 1,71,-1
 338 526 l 1,72,-1
 338 421 l 1,73,-1
 442 421 l 1,74,-1
 442 421 l 1,70,-1
EndSplineSet
EndChar

StartChar: x
Encoding: 120 120 65
Width: 542
GlyphClass: 1
Flags: W
LayerCount: 2
Fore
SplineSet
105 0 m 1,0,-1
 105 104 l 1,1,-1
 0 104 l 1,2,-1
 0 0 l 1,3,-1
 105 0 l 1,4,-1
 105 0 l 1,0,-1
105 421 m 1,5,-1
 105 526 l 1,6,-1
 0 526 l 1,7,-1
 0 421 l 1,8,-1
 105 421 l 1,9,-1
 105 421 l 1,5,-1
189 337 m 1,10,-1
 189 441 l 1,11,-1
 85 441 l 1,12,-1
 85 337 l 1,13,-1
 189 337 l 1,14,-1
 189 337 l 1,10,-1
189 84 m 1,15,-1
 189 188 l 1,16,-1
 85 188 l 1,17,-1
 85 84 l 1,18,-1
 189 84 l 1,19,-1
 189 84 l 1,15,-1
442 0 m 1,20,-1
 442 104 l 1,21,-1
 338 104 l 1,22,-1
 338 0 l 1,23,-1
 442 0 l 1,24,-1
 442 0 l 1,20,-1
358 84 m 1,25,-1
 358 188 l 1,26,-1
 253 188 l 1,27,-1
 253 84 l 1,28,-1
 358 84 l 1,29,-1
 358 84 l 1,25,-1
274 168 m 1,30,-1
 274 273 l 1,31,-1
 169 273 l 1,32,-1
 169 168 l 1,33,-1
 274 168 l 1,34,-1
 274 168 l 1,30,-1
274 253 m 1,35,-1
 274 357 l 1,36,-1
 169 357 l 1,37,-1
 169 253 l 1,38,-1
 274 253 l 1,39,-1
 274 253 l 1,35,-1
358 337 m 1,40,-1
 358 441 l 1,41,-1
 253 441 l 1,42,-1
 253 337 l 1,43,-1
 358 337 l 1,44,-1
 358 337 l 1,40,-1
442 421 m 1,45,-1
 442 526 l 1,46,-1
 338 526 l 1,47,-1
 338 421 l 1,48,-1
 442 421 l 1,49,-1
 442 421 l 1,45,-1
EndSplineSet
EndChar

StartChar: y
Encoding: 121 121 66
Width: 542
GlyphClass: 1
Flags: W
LayerCount: 2
Fore
SplineSet
105 84 m 1,0,-1
 105 188 l 1,1,-1
 0 188 l 1,2,-1
 0 84 l 1,3,-1
 105 84 l 1,4,-1
 105 84 l 1,0,-1
105 168 m 1,5,-1
 105 273 l 1,6,-1
 0 273 l 1,7,-1
 0 168 l 1,8,-1
 105 168 l 1,9,-1
 105 168 l 1,5,-1
105 253 m 1,10,-1
 105 357 l 1,11,-1
 0 357 l 1,12,-1
 0 253 l 1,13,-1
 105 253 l 1,14,-1
 105 253 l 1,10,-1
105 337 m 1,15,-1
 105 441 l 1,16,-1
 0 441 l 1,17,-1
 0 337 l 1,18,-1
 105 337 l 1,19,-1
 105 337 l 1,15,-1
105 421 m 1,20,-1
 105 526 l 1,21,-1
 0 526 l 1,22,-1
 0 421 l 1,23,-1
 105 421 l 1,24,-1
 105 421 l 1,20,-1
189 -169 m 1,25,-1
 189 -65 l 1,26,-1
 85 -65 l 1,27,-1
 85 -169 l 1,28,-1
 189 -169 l 1,29,-1
 189 -169 l 1,25,-1
274 -169 m 1,30,-1
 274 -65 l 1,31,-1
 169 -65 l 1,32,-1
 169 -169 l 1,33,-1
 274 -169 l 1,34,-1
 274 -169 l 1,30,-1
189 0 m 1,35,-1
 189 104 l 1,36,-1
 85 104 l 1,37,-1
 85 0 l 1,38,-1
 189 0 l 1,39,-1
 189 0 l 1,35,-1
274 0 m 1,40,-1
 274 104 l 1,41,-1
 169 104 l 1,42,-1
 169 0 l 1,43,-1
 274 0 l 1,44,-1
 274 0 l 1,40,-1
358 -169 m 1,45,-1
 358 -65 l 1,46,-1
 253 -65 l 1,47,-1
 253 -169 l 1,48,-1
 358 -169 l 1,49,-1
 358 -169 l 1,45,-1
442 -85 m 1,50,-1
 442 20 l 1,51,-1
 338 20 l 1,52,-1
 338 -85 l 1,53,-1
 442 -85 l 1,54,-1
 442 -85 l 1,50,-1
442 0 m 1,55,-1
 442 104 l 1,56,-1
 338 104 l 1,57,-1
 338 0 l 1,58,-1
 442 0 l 1,59,-1
 442 0 l 1,55,-1
358 84 m 1,60,-1
 358 188 l 1,61,-1
 253 188 l 1,62,-1
 253 84 l 1,63,-1
 358 84 l 1,64,-1
 358 84 l 1,60,-1
442 84 m 1,65,-1
 442 188 l 1,66,-1
 338 188 l 1,67,-1
 338 84 l 1,68,-1
 442 84 l 1,69,-1
 442 84 l 1,65,-1
442 168 m 1,70,-1
 442 273 l 1,71,-1
 338 273 l 1,72,-1
 338 168 l 1,73,-1
 442 168 l 1,74,-1
 442 168 l 1,70,-1
442 253 m 1,75,-1
 442 357 l 1,76,-1
 338 357 l 1,77,-1
 338 253 l 1,78,-1
 442 253 l 1,79,-1
 442 253 l 1,75,-1
442 337 m 1,80,-1
 442 441 l 1,81,-1
 338 441 l 1,82,-1
 338 337 l 1,83,-1
 442 337 l 1,84,-1
 442 337 l 1,80,-1
442 421 m 1,85,-1
 442 526 l 1,86,-1
 338 526 l 1,87,-1
 338 421 l 1,88,-1
 442 421 l 1,89,-1
 442 421 l 1,85,-1
EndSplineSet
EndChar
